<svg xmlns="http://www.w3.org/2000/svg" xmlns:xlink="http://www.w3.org/1999/xlink" version="1.1" id="Layer_1" x="0px" y="0px" width="100px" height="100px" viewBox="5.0 -10.0 100.0 135.0" enable-background="new 0 0 100 100" xml:space="preserve">
<g>
	<polygon points="73.703,46.247 79.604,47.985 84.14,44.64 79.604,40.358  "/>
	<polygon points="74.463,68.421 69.336,63.886 62.667,69.933 68.566,73.864  "/>
	<polygon points="22.425,53.906 25.771,56.583 32.794,55.245 28.111,52.401  "/>
	<polygon points="24.122,28.47 19.312,26.958 18.385,33.143 23.567,33.831  "/>
	<polygon points="74.083,56.021 72.399,56.862 72.399,58.667 74.684,58.667  "/>
	<polygon points="72.399,16.737 69.566,13.418 66.731,14.39 69.16,19.085  "/>
	<polygon points="32.489,37.046 29.427,37.046 28.608,42.149 32.489,42.149  "/>
	<path d="M64.257,33.056c-2.241-8.368-10-12.741-17.586-10.71c-7.58,2.031-12.115,9.698-9.872,18.067   c2.805,10.469,10.293,17.105,18.327,16.905c-0.059,0.094-0.089,0.2-0.122,0.306c-1.347,0.536-3.669,1.75-4.948,4.093   c-1.079,1.977-1.181,4.311-0.3,6.939c0.515,1.538,1.122,2.965,1.709,4.345c2.391,5.62,4.117,9.681-2.157,15.436l1.014,1.105   c7.057-6.472,4.854-11.648,2.523-17.129c-0.575-1.353-1.17-2.752-1.667-4.234c-0.74-2.211-0.677-4.141,0.189-5.734   c1.027-1.891,2.969-2.923,4.121-3.395c0.049,0.035,0.093,0.07,0.146,0.097c-0.653,0.632-1.466,1.657-1.198,2.656   c0.276,1.025,1.829,0.728,2.925,0.432c1.098-0.293,2.591-0.81,2.315-1.836c-0.267-1-1.483-1.48-2.364-1.701   c0.192-0.298,0.271-0.667,0.172-1.036c-0.097-0.36-0.34-0.639-0.646-0.803C63.896,53.015,67.062,43.524,64.257,33.056z    M47.346,24.862c1.002-0.268,2.024-0.404,3.038-0.404c0.294,0,0.585,0.016,0.873,0.037c-9.265,3.434-11.686,11.038-12.258,13.685   C38.063,32.011,41.448,26.443,47.346,24.862z"/>
	<polygon points="28.608,69.875 31.98,71.622 34.372,67.835 31.482,66.64  "/>
	<polygon points="36.765,80.293 43.142,80.293 44.138,76.806 37.562,77.802  "/>
	<polygon points="12.646,73.329 14.839,76.106 18.385,74.214 16.233,72.72  "/>
	<polygon points="92.175,25.717 88.189,22.292 84.401,26.958 87.589,29.467  "/>
	<polygon points="86.001,68.134 93.175,69.875 93.872,63.948 86.443,63.948  "/>
	<polygon points="74.684,83.682 78.422,85.276 81.013,82.187 77.823,80.692  "/>
	<path d="M87.986,50.15l4.828,0.592l1.411-3.721l-5.717-0.722L87.986,50.15z M89.366,47.416l3.475,0.438l-0.683,1.8l-3.045-0.373   L89.366,47.416z"/>
	<path d="M79.73,74.043c-9.911,1.731-13.325,13.048-13.359,13.162l0.721,0.21c0.031-0.11,3.321-10.983,12.768-12.633L79.73,74.043z"/>
	<path d="M40.271,67.913l0.746-0.076c-0.016-0.153-1.735-15.422-16.333-24.136L24.3,44.344   C38.565,52.86,40.256,67.764,40.271,67.913z"/>
	<path d="M70.747,42.926c0.415-8.65,3.675-11.433,6.551-13.889c3.668-3.133,6.837-5.839,3.087-18.718l-0.721,0.21   c3.615,12.414,0.761,14.852-2.854,17.938c-2.991,2.555-6.382,5.45-6.813,14.423L70.747,42.926z"/>
	<path d="M9.359,41.515l-3.723,2.481l2.246,4.703l5.591-3.391L9.359,41.515z M6.912,44.348l2.348-1.564l2.56,2.359l-3.511,2.129   L6.912,44.348z"/>
	<path d="M22.622,79.611l5.224,1.273l1.399-3.794l-3.947-1.602L22.622,79.611z M27.972,77.652l-0.755,2.049l-2.989-0.729   l1.459-2.248L27.972,77.652z"/>
	<path d="M34.468,18.828l-3.238-1.376l-1.289,2.98l2.729,2.21L34.468,18.828z M31.159,20.132l0.594-1.372l1.367,0.581l-0.812,1.721   L31.159,20.132z"/>
	<path d="M79.421,67.737v3.072l3.967-0.511l-1.048-4.131L79.421,67.737z M80.421,69.673v-1.338l1.265-0.68l0.456,1.796   L80.421,69.673z"/>
	<path d="M12.58,58.622l-0.02,0.75c15.59,0.415,24.108,7.421,24.192,7.492l0.482-0.574C37.149,66.218,28.45,59.044,12.58,58.622z"/>
</g>
<text x="0.0" y="117.5" font-size="5.0" font-weight="bold" font-family="Helvetica Neue, Helvetica, Arial-Unicode, Arial, Sans-serif" fill="#000000">Created by Iain Hector</text><text x="0.0" y="122.5" font-size="5.0" font-weight="bold" font-family="Helvetica Neue, Helvetica, Arial-Unicode, Arial, Sans-serif" fill="#000000">from the Noun Project</text></svg>