<svg xmlns="http://www.w3.org/2000/svg" xmlns:xlink="http://www.w3.org/1999/xlink" version="1.1" id="Layer_1" x="0px" y="0px" width="100px" height="100px" viewBox="5.0 -10.0 100.0 135.0" enable-background="new 0 0 100 100" xml:space="preserve">
<g>
	<path fill-rule="evenodd" clip-rule="evenodd" d="M68.212,38.203c0.317-1.739,2.417,0.202,3.005-0.968   c-3.167-1.312-1.194-3.759,0.449-5.19c-3.57-0.626-0.981-5.023,0.259-6.586c-0.751-0.624-3.324-0.364-2.78-1.625   c0.461-1.102,2.121,0.265,2.414-1.171c-5.792-0.985-4.074-5.628-5.709-8.645c-4.287-0.017-3.835-4.635-9.742-4.683   c0.034-6.974-7.098,1.708-10.745-3.697c-1.785,0.925,0.849,2.502-1.048,4.982c-3.26-0.573-5.184,1.596-9.181-0.485   c0.604,5.391-1.985,9.877-7.071,8.914c0.4,1.463,4.233,1.25,3.563,3.229c-3.322,5.028-6.025,7.805-6.331,14.517   c2.987,1.427,2.557,3.681,0.147,5.396c2.144,0.313,2.872-2.264,5.598-0.752c-0.26,0.796,0.859,0.911,0.79,1.609   c0.016,2.178-3.088,3.047-1.651,4.776c1.142-2.08,3.984-0.668,6.595,0.259c-0.659,1.811-0.509,3.231,0.559,4.201   c2.366-5.934,8.928-1.646,9.96,2.094c0.642-1.059,1.102-2.498,2.615-1.771c5.785,2.142,1.057,9.416,3.469,13.21   c2.008-4.441-0.979-15.988,6.941-16.31c1.369,1.819,1.515,4.233,2.539,6.216c0.201-3.713-1.446-10.513,3.51-12.146   c3.543,0.592,3.521,2.914,5.95,4.051C71.912,44.018,65.812,43.183,68.212,38.203z"/>
	<path fill-rule="evenodd" clip-rule="evenodd" d="M53.259,92.182c1.89-4.704,0.231-11.318-1.058-15.449   C51.482,81.742,47.699,90.481,53.259,92.182z"/>
	<path fill-rule="evenodd" clip-rule="evenodd" d="M64.148,91.77c-1.273,1.37-1.273,5.525,1.814,5.348   C66.978,95.349,66.763,92.345,64.148,91.77z"/>
</g>
<text x="0.0" y="117.5" font-size="5.0" font-weight="bold" font-family="Helvetica Neue, Helvetica, Arial-Unicode, Arial, Sans-serif" fill="#000000">Created by Peter Chilton</text><text x="0.0" y="122.5" font-size="5.0" font-weight="bold" font-family="Helvetica Neue, Helvetica, Arial-Unicode, Arial, Sans-serif" fill="#000000">from the Noun Project</text></svg>