<svg xmlns="http://www.w3.org/2000/svg" xmlns:xlink="http://www.w3.org/1999/xlink" version="1.1" id="Layer_1" x="0px" y="0px" width="50px" height="50px" viewBox="2.5 -5.0 50.0 67.5" enable-background="new 0 0 50 50" xml:space="preserve">
<g>
	<g>
		<circle fill="#000000" cx="683.798" cy="3613.543" r="2.722"/>
	</g>
	<g>
		<g>
			<polygon fill="#000000" points="667.215,3621.643 667.096,3621.664 666.981,3621.719    "/>
			<path fill="#000000" d="M670.965,3620.113l-0.005-0.049c-0.011-0.092-0.007-0.182-0.004-0.271l-3.86,1.87l0.119-0.021     l-0.233,0.076l0.114-0.055l-2.04,0.356l3.024,0.543l3.369-1.188l-0.468-1.217L670.965,3620.113z"/>
			<polygon fill="#000000" points="668.366,3623.15 668.148,3623.111 667.943,3623.18    "/>
			<path fill="#000000" d="M671.625,3621.965l-3.477,1.146l0.218,0.039l-0.423,0.029l0.205-0.068l-6.765-1.205l-0.287-0.051     l-0.26,0.135l-2.566,2.278l2.906-0.638l-0.095-0.018l0.548-0.082l-0.453,0.1l6.885,1.227l0.215,0.037l0.21-0.068l4.651-1.535     c-0.305-0.07-0.593-0.199-0.846-0.397C671.981,3622.648,671.759,3622.326,671.625,3621.965z"/>
			<polygon fill="#000000" points="661.082,3623.613 661.177,3623.631 661.63,3623.531    "/>
			<path fill="#000000" d="M671.732,3619.86c0,0.029-0.011,0.056-0.009,0.089l0.449,1.17l0.177-0.063L671.732,3619.86z"/>
			<path fill="#000000" d="M672.371,3621.719c0.085,0.22,0.207,0.422,0.397,0.572c0.283,0.225,0.635,0.324,0.993,0.283     c0,0,0.244-0.029,0.623-0.072l-0.43-1.305L672.371,3621.719z"/>
			<polygon fill="#000000" points="683.339,3617.053 683.33,3617.053 683.332,3617.061    "/>
			<path fill="#000000" d="M671.5,3621.475c0.004,0.025,0.013,0.051,0.017,0.076l0.007,0.018L671.5,3621.475z"/>
			<polygon fill="#000000" points="681.532,3616.273 681.544,3616.275 681.584,3616.265    "/>
			<path fill="#000000" d="M671.722,3619.978c-0.002-0.011,0.002-0.021,0.002-0.028l-0.024-0.066L671.722,3619.978z"/>
		</g>
		<g>
			<path fill="#000000" d="M689.647,3616.198l-6.232,1.229l-2.36,0.514c0.53,0.594,1.804,1.62,3.045,2.844l5.945-3.133l18.038,0.684     l0.203-1.105L689.647,3616.198z"/>
		</g>
	</g>
	<g>
		<polygon fill="#000000" points="691.565,3621.357 690.935,3620.948 690.396,3621.482   "/>
		<polygon fill="#000000" points="693.587,3618.316 690.935,3620.948 691.565,3621.357 690.396,3621.482 690.935,3620.948     688.235,3619.206 686.314,3620.191 690.555,3622.928 691.186,3623.338 691.723,3622.803 695.934,3618.412   "/>
		<g>
			<polygon fill="#000000" points="686.488,3621.979 685.934,3621.525 685.3,3622.035    "/>
			<polygon fill="#000000" points="690.111,3618.184 685.934,3621.525 686.488,3621.979 685.3,3622.035 685.934,3621.525      685.078,3620.828 684.02,3621.371 683.688,3621.107 680.273,3617.859 679.446,3619.011 685.367,3623.475 685.985,3623.939      686.559,3623.42 692.289,3618.254    "/>
			<polygon fill="#000000" points="680.706,3617.256 680.336,3617.771 681.089,3617.568    "/>
			<polygon fill="#000000" points="680.216,3617.803 680.273,3617.859 680.336,3617.771    "/>
			<g>
				<path fill="#000000" d="M680.336,3617.771l0.753-0.203c0,0,1.638-0.379,1.838-0.432c-0.217-0.555-0.764-0.928-1.383-0.861      l-8.585,2.189l-0.025,0.008l-0.024,0.002c-0.701,0.082-1.198,0.693-1.177,1.386l0.617,1.196l-0.177,0.063l0.067,0.175      l0.018,0.044l0.005,0.049c0.013,0.117,0.065,0.225,0.108,0.332l1.584-0.521l0.43,1.305c1.93-0.225,7.768-0.906,7.77-0.906      c0.201-0.021,0.386-0.109,0.557-0.223l-1.261-2.396l-1.177-1.118L680.336,3617.771z"/>
			</g>
		</g>
	</g>
</g>
<g>
	<g>
		<g>
			<g>
				<path fill-rule="evenodd" clip-rule="evenodd" fill="#000000" d="M13.307,34.475c0,0,5.24-4.441,5.082-11.108      c0,0,0-8.253,1.904-10.635c0,0-2.14,9.748,1.945,14.203c4.085,4.456,14.241,2.621,14.241,2.621s-3.809,2.224-11.742,1.588      c0,0-6.348,1.904-9.205,5.239L13.307,34.475z"/>
				<path fill-rule="evenodd" clip-rule="evenodd" fill="#000000" d="M13.469,34.666c0.053-0.045,5.33-4.598,5.17-11.306      c0-0.076,0.021-8.187,1.849-10.472l-0.439-0.211c-0.088,0.404-2.121,9.927,2.004,14.426c4.131,4.506,14.05,2.774,14.47,2.698      l-0.171-0.462c-0.037,0.021-3.85,2.176-11.596,1.555l-0.047-0.004l-0.045,0.014c-0.262,0.077-6.45,1.964-9.322,5.314      l0.353-0.027l-2.225-1.906L13.469,34.666z M15.722,36.545c2.775-3.24,9.023-5.144,9.086-5.162l-0.092,0.01      c8.033,0.645,11.865-1.604,11.9-1.628l-0.182-0.455c-0.101,0.019-10.067,1.759-14.013-2.544      c-3.951-4.309-1.906-13.884-1.885-13.98l-0.439-0.21c-1.937,2.421-1.958,10.449-1.958,10.791      c0.153,6.479-4.942,10.875-4.994,10.919l-0.224,0.189l0.223,0.191l2.225,1.906l0.19,0.162L15.722,36.545z"/>
			</g>
			<g>
				<path fill-rule="evenodd" clip-rule="evenodd" fill="#000000" d="M4.936,47.881c-1.065,1.099-2.588,1.348-3.407,0.555l0,0      c-0.819-0.795-0.621-2.329,0.443-3.426l7.964-8.221c1.064-1.098,2.589-1.348,3.409-0.553l0,0      c0.816,0.789,0.618,2.325-0.446,3.424L4.936,47.881z"/>
				<path fill-rule="evenodd" clip-rule="evenodd" fill="#000000" d="M4.756,47.708c-0.966,0.995-2.336,1.241-3.054,0.548      c-0.273-0.266-0.422-0.639-0.429-1.078c-0.01-0.672,0.318-1.416,0.878-1.994l7.964-8.221c0.966-0.996,2.337-1.244,3.056-0.547      c0.717,0.693,0.515,2.072-0.452,3.07L4.756,47.708z M13.079,39.834c1.158-1.197,1.356-2.891,0.441-3.777      c-0.917-0.887-2.605-0.637-3.763,0.56l-7.964,8.22c-0.66,0.68-1.031,1.537-1.019,2.351c0.009,0.575,0.21,1.067,0.581,1.429      c0.916,0.885,2.603,0.635,3.761-0.561L13.079,39.834z"/>
			</g>
			<g>
				<path fill-rule="evenodd" clip-rule="evenodd" fill="#000000" d="M24.627,6.161c-2.328,2.168-4.117,4.795-5.171,7.597      c-1.961,5.206-1.228,10.362,1.96,13.792c2.075,2.228,5.061,3.519,8.41,3.637c4.563,0.161,9.357-1.775,13.152-5.313      c3.802-3.539,6.075-8.186,6.238-12.75c0.121-3.395-0.926-6.381-3.027-8.637C41.129-0.948,31.457-0.196,24.627,6.161z       M44.727,5.85c1.731,1.859,2.594,4.351,2.491,7.202c-0.144,4.039-2.186,8.177-5.602,11.357c-3.411,3.179-7.683,4.92-11.72,4.777      c-2.855-0.1-5.281-1.137-7.016-3c-2.66-2.861-3.241-7.244-1.553-11.724c0.946-2.515,2.559-4.879,4.663-6.838      C32.013,2.019,40.417,1.222,44.727,5.85z"/>
			</g>
		</g>
		<g>
			
				<rect x="17.725" y="11.043" transform="matrix(-0.7236 0.6902 -0.6902 -0.7236 58.5516 -0.6112)" fill-rule="evenodd" clip-rule="evenodd" fill="#000000" width="23.346" height="0.75"/>
		</g>
		<g>
			
				<rect x="18.241" y="14.487" transform="matrix(-0.7294 0.6841 -0.6841 -0.7294 66.5161 3.409)" fill-rule="evenodd" clip-rule="evenodd" fill="#000000" width="28.685" height="0.75"/>
		</g>
		<g>
			
				<rect x="22.278" y="18.191" transform="matrix(-0.721 0.6929 -0.6929 -0.721 75.0918 6.8981)" fill-rule="evenodd" clip-rule="evenodd" fill="#000000" width="27.758" height="0.75"/>
		</g>
		<g>
			
				<rect x="29.546" y="21.244" transform="matrix(-0.7005 0.7136 -0.7136 -0.7005 82.5485 8.5954)" fill-rule="evenodd" clip-rule="evenodd" fill="#000000" width="19.849" height="0.75"/>
		</g>
		<g>
			
				<rect x="29.221" y="10.913" transform="matrix(-0.7071 -0.7071 0.7071 -0.7071 58.8456 46.9501)" fill-rule="evenodd" clip-rule="evenodd" fill="#000000" width="19.849" height="0.75"/>
		</g>
		<g>
			
				<rect x="24.239" y="14.552" transform="matrix(-0.6983 -0.7158 0.7158 -0.6983 49.2865 50.627)" fill-rule="evenodd" clip-rule="evenodd" fill="#000000" width="22.146" height="0.75"/>
		</g>
		<g>
			
				<rect x="20.987" y="18.061" transform="matrix(-0.704 -0.7102 0.7102 -0.704 40.4384 53.7248)" fill-rule="evenodd" clip-rule="evenodd" fill="#000000" width="20.856" height="0.75"/>
		</g>
		<g>
			
				<rect x="18.858" y="21.245" transform="matrix(-0.6957 -0.7184 0.7184 -0.6957 31.0151 56.3788)" fill-rule="evenodd" clip-rule="evenodd" fill="#000000" width="17.184" height="0.749"/>
		</g>
	</g>
	<g>
		<path fill="#000000" d="M21.327,42.564c0,3.124,2.519,5.656,5.627,5.656c0.411,0,0.815-0.045,1.199-0.129    c-0.321-0.523-1.222-1.748-2.933-2.463c-0.087-0.041-2.124-1.004-2.561-2.795c-0.238-0.971,0.035-1.979,0.816-2.988l-0.022,0.025    c0.041-0.058,0.927-1.391,2.407-1.529c0.975-0.09,1.948,0.355,2.887,1.332l0.03,0.029l0.022,0.035    c0.551,0.849,2.262,2.98,3.778,3.021c0.001-0.064,0.003-0.129,0.003-0.195c0-3.121-2.521-5.656-5.627-5.656    C23.845,36.908,21.327,39.443,21.327,42.564z"/>
		<path fill="#000000" d="M28.093,40.256c-0.732-0.757-1.458-1.11-2.148-1.047c-1.055,0.098-1.756,1.129-1.76,1.139l-0.011,0.016    l-0.01,0.014c-0.609,0.789-0.831,1.547-0.659,2.248c0.336,1.381,2.063,2.203,2.067,2.203c2.156,0.908,3.172,2.521,3.44,3    c1.771-0.701,3.107-2.277,3.47-4.201C30.33,43.502,28.357,40.648,28.093,40.256z"/>
	</g>
</g>
<text x="0.0" y="58.75" font-size="2.5" font-weight="bold" font-family="Helvetica Neue, Helvetica, Arial-Unicode, Arial, Sans-serif" fill="#000000">Created by Mister Pixel</text><text x="0.0" y="61.25" font-size="2.5" font-weight="bold" font-family="Helvetica Neue, Helvetica, Arial-Unicode, Arial, Sans-serif" fill="#000000">from the Noun Project</text></svg>