<svg xmlns="http://www.w3.org/2000/svg" xmlns:xlink="http://www.w3.org/1999/xlink" version="1.1" id="Layer_1" x="0px" y="0px" width="90px" height="90px" viewBox="4.5 -9.0 90.0 121.5" enable-background="new 0 0 90 90" xml:space="preserve">
<path stroke="#000000" stroke-width="0.0093" stroke-miterlimit="10" d="M20.622,24.172c0,2.059-1.669,3.729-3.729,3.729  s-3.729-1.67-3.729-3.729s3.729-7.458,3.729-7.458S20.622,22.113,20.622,24.172z"/>
<path stroke="#000000" stroke-width="0.0093" stroke-miterlimit="10" d="M48.588,7.392c0,2.06-1.67,3.729-3.729,3.729  s-3.729-1.67-3.729-3.729c0-2.059,3.729-7.458,3.729-7.458S48.588,5.333,48.588,7.392z"/>
<path stroke="#000000" stroke-width="0.0093" stroke-miterlimit="10" d="M76.555,24.172c0,2.059-1.67,3.729-3.729,3.729  s-3.729-1.67-3.729-3.729s3.729-7.458,3.729-7.458S76.555,22.113,76.555,24.172z"/>
<g>
	<path fill="none" stroke="#000000" stroke-width="0.0093" stroke-miterlimit="10" d="M37.178,22.507   c-0.02-0.031-0.047-0.055-0.069-0.084c-0.019,0.024-0.042,0.046-0.059,0.071C37.092,22.501,37.136,22.499,37.178,22.507z"/>
	<path fill="none" stroke="#000000" stroke-width="0.0093" stroke-miterlimit="10" d="M52.669,22.488   c-0.017-0.024-0.039-0.044-0.055-0.066c-0.02,0.027-0.046,0.049-0.065,0.079C52.588,22.494,52.628,22.494,52.669,22.488z"/>
	<path stroke="#000000" stroke-width="0.0093" stroke-miterlimit="10" d="M41.557,18.033c0.743-1.043,1.956-1.731,3.332-1.731   c1.375,0,2.585,0.685,3.328,1.726c0.355-0.056,0.714-0.109,1.085-0.109c0.741,0,1.442,0.147,2.11,0.366   c-0.896-2.764-3.465-4.78-6.524-4.78c-3.052,0-5.615,2.007-6.519,4.759c0.65-0.204,1.33-0.346,2.047-0.346   C40.806,17.918,41.183,17.971,41.557,18.033z"/>
	<path stroke="#000000" stroke-width="0.0093" stroke-miterlimit="10" d="M52.614,18.803c-0.381-0.209-0.781-0.382-1.202-0.519   c0.12,0.368,0.211,0.745,0.268,1.138C51.973,19.191,52.284,18.987,52.614,18.803z"/>
	<path stroke="#000000" stroke-width="0.0093" stroke-miterlimit="10" d="M48.217,18.027c0.478,0.67,0.765,1.484,0.765,2.367   c0,0.122-0.025,0.236-0.036,0.356c0.121-0.011,0.235-0.037,0.357-0.037c0.346,0,0.677,0.057,1,0.139   c0.384-0.546,0.856-1.018,1.378-1.431c-0.057-0.393-0.147-0.771-0.268-1.138c-0.668-0.219-1.369-0.366-2.11-0.366   C48.931,17.918,48.572,17.971,48.217,18.027z"/>
	<path stroke="#000000" stroke-width="0.0093" stroke-miterlimit="10" d="M53.661,33.367c-1.025,0-1.952-0.392-2.671-1.016   c-0.431,0.839-1.025,1.57-1.748,2.165c1.2,1.013,2.729,1.648,4.419,1.648c3.576,0,6.489-2.748,6.824-6.236   c-0.954,0.85-2.132,1.437-3.447,1.653C56.301,32.657,55.063,33.367,53.661,33.367z"/>
	<path stroke="#000000" stroke-width="0.0093" stroke-miterlimit="10" d="M62.812,24.808c0-3.8-3.09-6.89-6.89-6.89   c-1.206,0-2.321,0.339-3.308,0.885c0.916,0.508,1.711,1.199,2.312,2.048c0.32-0.08,0.65-0.137,0.996-0.137   c2.258,0,4.093,1.836,4.093,4.093c0,0.475-0.097,0.923-0.248,1.348c0.484,0.941,0.783,1.992,0.783,3.121   c0,0.224-0.045,0.436-0.065,0.652C61.902,28.666,62.812,26.849,62.812,24.808z"/>
	<path stroke="#000000" stroke-width="0.0093" stroke-miterlimit="10" d="M51.779,20.395c0,0.372-0.053,0.729-0.109,1.085   c0.364,0.26,0.683,0.579,0.945,0.942c0.556-0.77,1.367-1.331,2.312-1.571c-0.601-0.85-1.396-1.54-2.312-2.048   c-0.33,0.184-0.641,0.388-0.934,0.62C51.726,19.742,51.779,20.062,51.779,20.395z"/>
	<path stroke="#000000" stroke-width="0.0093" stroke-miterlimit="10" d="M51.779,20.395c0-0.333-0.053-0.652-0.099-0.972   c-0.522,0.413-0.995,0.885-1.378,1.431c0.497,0.125,0.959,0.336,1.368,0.626C51.726,21.124,51.779,20.766,51.779,20.395z"/>
	<path stroke="#000000" stroke-width="0.0093" stroke-miterlimit="10" d="M59.768,26.155c-0.363,1.029-1.116,1.866-2.094,2.333   c0.051,0.257,0.081,0.519,0.081,0.788c0,0.856-0.266,1.648-0.716,2.305c1.315-0.216,2.493-0.803,3.447-1.653   c0.02-0.216,0.065-0.428,0.065-0.652C60.551,28.147,60.252,27.097,59.768,26.155z"/>
	<path stroke="#000000" stroke-width="0.0093" stroke-miterlimit="10" d="M29.931,26.097c-0.136-0.408-0.228-0.836-0.228-1.29   c0-2.257,1.835-4.093,4.093-4.093c0.346,0,0.677,0.057,1,0.139c0.601-0.852,1.396-1.542,2.312-2.051   c-0.987-0.546-2.105-0.885-3.312-0.885c-3.8,0-6.89,3.09-6.89,6.89c0,2.016,0.886,3.814,2.272,5.075   c-0.018-0.204-0.062-0.399-0.062-0.606C29.118,28.124,29.429,27.053,29.931,26.097z"/>
	<path stroke="#000000" stroke-width="0.0093" stroke-miterlimit="10" d="M38.753,32.288c-0.729,0.665-1.687,1.08-2.746,1.08   c-1.406,0-2.644-0.712-3.383-1.792c-1.316-0.227-2.496-0.83-3.445-1.693c0.312,3.51,3.236,6.282,6.828,6.282   c1.715,0,3.267-0.654,4.472-1.693C39.763,33.868,39.175,33.13,38.753,32.288z"/>
	<path stroke="#000000" stroke-width="0.0093" stroke-miterlimit="10" d="M31.914,29.276c0-0.278,0.029-0.55,0.082-0.813   c-0.971-0.481-1.715-1.328-2.065-2.365c-0.502,0.956-0.813,2.026-0.813,3.179c0,0.208,0.043,0.403,0.062,0.606   c0.949,0.863,2.128,1.466,3.445,1.693C32.178,30.92,31.914,30.128,31.914,29.276z"/>
	<path stroke="#000000" stroke-width="0.0093" stroke-miterlimit="10" d="M47.518,32.332c-0.714,0.602-1.624,0.981-2.629,0.981   c-1.042,0-1.984-0.403-2.708-1.047c-0.413,0.851-0.994,1.593-1.703,2.205c1.2,1.007,2.724,1.639,4.41,1.639   c1.659,0,3.163-0.613,4.354-1.593C48.526,33.912,47.94,33.174,47.518,32.332z"/>
	<path stroke="#000000" stroke-width="0.0093" stroke-miterlimit="10" d="M50.99,32.351c-0.26-0.226-0.499-0.473-0.695-0.757   c-0.328,0.047-0.652,0.1-0.992,0.1c-0.372,0-0.728-0.053-1.085-0.109c-0.198,0.279-0.437,0.524-0.699,0.747   c0.422,0.843,1.009,1.58,1.725,2.185C49.965,33.921,50.559,33.19,50.99,32.351z"/>
	<path stroke="#000000" stroke-width="0.0093" stroke-miterlimit="10" d="M42.181,32.266c-0.233-0.206-0.446-0.431-0.626-0.687   c-0.372,0.062-0.749,0.115-1.138,0.115c-0.357,0-0.699-0.053-1.042-0.105c-0.179,0.258-0.392,0.488-0.623,0.699   c0.422,0.843,1.01,1.58,1.726,2.183C41.187,33.859,41.768,33.116,42.181,32.266z"/>
	<path stroke="#000000" stroke-width="0.0093" stroke-miterlimit="10" d="M38.37,18.264c-0.442,0.139-0.863,0.319-1.261,0.539   c0.348,0.193,0.675,0.414,0.984,0.661C38.15,19.051,38.243,18.652,38.37,18.264z"/>
	<path stroke="#000000" stroke-width="0.0093" stroke-miterlimit="10" d="M39.421,20.851c0.32-0.08,0.65-0.137,0.996-0.137   c0.142,0,0.277,0.027,0.415,0.042c-0.011-0.122-0.037-0.239-0.037-0.362c0-0.881,0.286-1.694,0.761-2.362   c-0.374-0.062-0.75-0.115-1.14-0.115c-0.717,0-1.396,0.142-2.047,0.346c-0.127,0.388-0.22,0.787-0.277,1.2   C38.594,19.868,39.049,20.325,39.421,20.851z"/>
	<path stroke="#000000" stroke-width="0.0093" stroke-miterlimit="10" d="M34.796,20.854c0.945,0.238,1.757,0.801,2.312,1.569   c0.274-0.382,0.608-0.717,0.996-0.985c-0.053-0.342-0.105-0.687-0.105-1.043c0-0.319,0.053-0.623,0.094-0.931   c-0.309-0.248-0.637-0.468-0.984-0.661C36.193,19.311,35.397,20.001,34.796,20.854z"/>
	<path stroke="#000000" stroke-width="0.0093" stroke-miterlimit="10" d="M38.093,19.464c-0.042,0.308-0.094,0.612-0.094,0.931   c0,0.356,0.053,0.701,0.105,1.043c0.393-0.271,0.839-0.464,1.317-0.586C39.049,20.325,38.594,19.868,38.093,19.464z"/>
</g>
<path stroke="#000000" stroke-width="0.0093" stroke-miterlimit="10" d="M80.763,39.083L63.759,25.419  c-0.929-0.746-2.011-1.212-3.148-1.443c0.005,0.1,0.035,0.195,0.035,0.296c0,0.796-0.199,1.551-0.546,2.238l1,0.517  c0.321,0.151,0.625,0.342,0.909,0.572l17.004,13.665c1.923,1.544,2.309,4.27,0.861,6.072c-0.382,0.476-0.889,0.853-1.504,1.124  L60.828,61.041c-0.665,0.477-1.42,0.758-2.207,0.845v2.778l-0.042,0.021c1.389-0.088,2.726-0.544,3.88-1.376l17.179-12.354  c0.967-0.449,1.779-1.075,2.414-1.866C84.465,46.084,83.888,41.595,80.763,39.083z"/>
<path stroke="#000000" stroke-width="0.0093" stroke-miterlimit="10" d="M55.13,54.866l2.055-1.618  c-0.892-0.794-1.902-1.507-3.022-2.11c-0.639,0.768-1.366,1.45-2.174,2.023c1.017,0.459,1.934,1.017,2.748,1.649L55.13,54.866z"/>
<path stroke="#000000" stroke-width="0.0093" stroke-miterlimit="10" d="M31.342,61.848c-0.761-0.082-1.515-0.336-2.17-0.807  l-0.623-0.448l-0.004-0.002l0,0L11.884,48.605l-0.251-0.146c-0.619-0.271-1.124-0.65-1.502-1.122  c-1.449-1.804-1.065-4.528,0.858-6.074l17.006-13.667c0.211-0.167,0.435-0.317,0.673-0.442l0.652-0.536  c-0.332-0.715-0.528-1.505-0.528-2.347c0-0.056,0.015-0.109,0.016-0.166c-0.95,0.266-1.81,0.703-2.565,1.311L9.236,39.083  c-3.124,2.513-3.701,7.001-1.287,10.006c0.632,0.787,1.444,1.415,2.415,1.866L27.541,63.31c1.132,0.815,2.441,1.269,3.802,1.37  V61.848z"/>
<path stroke="#000000" stroke-width="0.0093" stroke-miterlimit="10" d="M55.651,33.254l-0.078-0.25l-1.806,1.145l0.626,0.588  l0.89,1.664c0.896,1.679,1.371,3.576,1.371,5.482c0,6.425-5.228,11.653-11.653,11.653S33.349,48.31,33.349,41.885  c0-1.91,0.474-3.806,1.371-5.482l0.967-1.804l-1.722-1.032L20.447,44.428l12.177,8.758l0,0l0.005,0.003l1.442,1.038  c0.288,0.206,0.535,0.444,0.759,0.695l0.002,0.002l3.092-0.444c2.094,1.18,4.508,1.854,7.077,1.854c2.511,0,4.871-0.651,6.93-1.784  l0.107-0.127l3.092,0.443l0.67-0.527c0.045-0.035,0.08-0.077,0.127-0.111l0.164-0.118l1.247-0.981h0.118l12.098-8.7L55.651,33.254z   M25.064,44.305l5.644-4.534c-0.104,0.697-0.156,1.405-0.156,2.114c0,3.048,0.948,5.879,2.567,8.213L25.064,44.305z M56.885,50.094  c1.617-2.332,2.565-5.161,2.565-8.209c0-0.708-0.052-1.415-0.156-2.114l5.643,4.534L56.885,50.094z"/>
<path stroke="#000000" stroke-width="0.0093" stroke-miterlimit="10" d="M34.833,54.925l0.024-0.004  c1.078-0.861,2.345-1.599,3.782-2.141c-0.777-0.617-1.473-1.335-2.074-2.136c-1.485,0.681-2.796,1.553-3.933,2.547L34.833,54.925z"/>
<path d="M30.723,87.521c-1.377,0-2.591-0.65-3.396-1.645c-0.354,0.817-0.858,1.555-1.483,2.172c1.254,1.247,2.977,2.018,4.879,2.018  c2.695,0,5.011-1.564,6.156-3.82c-0.86-0.16-1.658-0.488-2.375-0.936C33.747,86.624,32.344,87.521,30.723,87.521z"/>
<path d="M30.481,78.774c0.082-0.005,0.158-0.023,0.242-0.023c0.196,0,0.382,0.031,0.571,0.059c0.083-0.887,0.324-1.717,0.709-2.474  c-0.411-0.079-0.833-0.128-1.266-0.128c0.018,0.202,0.062,0.396,0.062,0.604C30.798,77.5,30.667,78.15,30.481,78.774z"/>
<path d="M23.87,72.43c2.373,0,4.301,1.897,4.371,4.256c0.773-0.3,1.604-0.48,2.482-0.48c0.004,0,0.009,0.003,0.014,0.003  c-0.312-3.536-3.254-6.324-6.867-6.324c-3.821,0-6.93,3.106-6.93,6.928c0,0.225,0.044,0.437,0.065,0.654  c0.75-0.524,1.602-0.911,2.524-1.107C19.76,74.159,21.606,72.43,23.87,72.43z"/>
<path d="M28.241,76.686c0,0.043,0.013,0.083,0.013,0.126c0,1.175-0.471,2.242-1.227,3.028c0.102,0.185,0.217,0.36,0.301,0.554  c0.755-0.932,1.877-1.548,3.154-1.619c0.186-0.624,0.317-1.274,0.317-1.963c0-0.207-0.044-0.401-0.062-0.604  c-0.004,0-0.009-0.003-0.014-0.003C29.844,76.205,29.014,76.386,28.241,76.686z"/>
<path d="M61.613,76.812c0-2.415,1.966-4.382,4.385-4.382c2.22,0,4.04,1.664,4.325,3.809c0.926,0.044,1.801,0.262,2.597,0.636  c0-0.02,0.005-0.041,0.005-0.062c0-3.821-3.108-6.928-6.928-6.928c-3.629,0-6.583,2.812-6.875,6.365  c0.889,0.057,1.728,0.272,2.496,0.633C61.62,76.859,61.613,76.834,61.613,76.812z"/>
<path d="M20.968,87.521c-2.419,0-4.386-1.969-4.386-4.388c0-1.175,0.472-2.239,1.229-3.026c-0.438-0.8-0.714-1.688-0.806-2.641  c-1.789,1.252-2.967,3.323-2.967,5.667c0,3.822,3.109,6.933,6.93,6.933c1.901,0,3.624-0.771,4.876-2.018  c-0.623-0.617-1.128-1.354-1.482-2.172C23.559,86.87,22.343,87.521,20.968,87.521z"/>
<path d="M24.362,85.876c0.354,0.817,0.859,1.555,1.482,2.172c0.625-0.617,1.129-1.354,1.483-2.172  c-0.584-0.723-0.949-1.621-0.977-2.611"/>
<path d="M20.017,78.861c-0.329-0.614-0.533-1.307-0.533-2.05c0-0.156,0.031-0.3,0.045-0.453c-0.923,0.196-1.775,0.583-2.524,1.107  c0.091,0.952,0.368,1.841,0.806,2.641C18.397,79.495,19.158,79.054,20.017,78.861z"/>
<path d="M72.921,76.874c-0.008,0.918-0.194,1.797-0.528,2.597c1.195,0.783,1.99,2.13,1.99,3.662c0,2.419-1.967,4.388-4.384,4.388  c-2.22,0-4.042-1.666-4.327-3.812c-0.04-0.001-0.078-0.009-0.117-0.011c-0.103,1.264-0.523,2.433-1.214,3.412  c1.255,1.781,3.32,2.955,5.658,2.955c3.821,0,6.929-3.11,6.929-6.933C76.928,80.361,75.28,77.979,72.921,76.874z"/>
<path d="M70.382,76.812c0,0.704-0.181,1.359-0.476,1.949c0.032-0.002,0.061-0.01,0.093-0.01c0.884,0,1.704,0.269,2.395,0.72  c0.333-0.8,0.52-1.679,0.528-2.597c-0.796-0.374-1.671-0.592-2.597-0.636C70.349,76.429,70.382,76.615,70.382,76.812z"/>
<path d="M45.105,78.771c0.089-0.901,0.343-1.744,0.744-2.513c-0.18-0.013-0.353-0.054-0.536-0.054c-0.347,0-0.68,0.052-1.012,0.104  c0.389,0.755,0.634,1.585,0.72,2.471C45.051,78.777,45.077,78.771,45.105,78.771z"/>
<path d="M45.314,87.521c-1.574,0-2.945-0.842-3.719-2.091c-0.736,0.425-1.549,0.715-2.423,0.846c1.15,2.239,3.457,3.79,6.142,3.79  c2.666,0,4.957-1.531,6.116-3.743c-0.901-0.069-1.749-0.304-2.521-0.688C48.115,86.77,46.801,87.521,45.314,87.521z"/>
<path d="M51.966,75.064c1.5,0,2.823,0.758,3.614,1.905c0.767-0.385,1.611-0.628,2.506-0.705c-1.158-2.217-3.451-3.746-6.121-3.746  c-2.665,0-4.958,1.527-6.116,3.74c0.902,0.071,1.751,0.306,2.524,0.689C49.166,75.812,50.478,75.064,51.966,75.064z"/>
<path d="M51.43,86.322c0.18,0.014,0.352,0.055,0.536,0.055c0.205,0,0.397-0.044,0.598-0.061c-0.239-0.459-0.433-0.941-0.565-1.455  C51.866,85.377,51.671,85.863,51.43,86.322z"/>
<path d="M45.314,78.751c0.834,0,1.607,0.247,2.272,0.654c0.01-0.912,0.299-1.759,0.788-2.457c-0.773-0.384-1.622-0.618-2.524-0.689  c-0.401,0.769-0.655,1.611-0.744,2.513C45.176,78.769,45.242,78.751,45.314,78.751z"/>
<path d="M51.823,83.818c-0.779-0.027-1.503-0.255-2.128-0.64c-0.009,0.912-0.298,1.756-0.786,2.455  c0.772,0.385,1.62,0.619,2.521,0.688c0.241-0.459,0.436-0.945,0.569-1.461C51.911,84.525,51.859,84.176,51.823,83.818z"/>
<path d="M59.4,78.823c-0.197-0.642-0.332-1.307-0.332-2.012c0-0.192,0.042-0.372,0.056-0.562c-0.148-0.009-0.291-0.044-0.442-0.044  c-0.204,0-0.395,0.043-0.595,0.06c0.399,0.765,0.651,1.604,0.741,2.501C59.022,78.771,59.212,78.79,59.4,78.823z"/>
<path d="M58.682,87.521c-1.498,0-2.822-0.76-3.612-1.911c-0.768,0.388-1.61,0.628-2.505,0.707c1.158,2.214,3.45,3.749,6.118,3.749  c2.339,0,4.403-1.174,5.659-2.955c-0.796-1.127-1.272-2.492-1.272-3.978C63.069,85.552,61.101,87.521,58.682,87.521z"/>
<path d="M59.4,78.823c2.054,0.342,3.868,2.455,4.201,1.654c-1.176-0.772-1.957-2.093-1.981-3.596  c-0.768-0.36-1.607-0.576-2.496-0.633c-0.015,0.19-0.056,0.37-0.056,0.562C59.068,77.517,59.203,78.182,59.4,78.823z"/>
<path d="M63.069,83.133c0,1.485,0.476,2.851,1.272,3.978c0.691-0.979,1.111-2.148,1.214-3.412  C64.674,83.643,63.069,83.111,63.069,83.133z"/>
<path d="M56.35,79.436c0.677-0.43,1.473-0.685,2.332-0.685c0.051,0,0.097,0.013,0.146,0.015c-0.09-0.897-0.342-1.736-0.741-2.501  c-0.896,0.077-1.739,0.32-2.506,0.705C56.063,77.675,56.349,78.521,56.35,79.436z"/>
<path d="M54.299,83.146c-0.62,0.392-1.346,0.627-2.124,0.665c-0.035,0.36-0.088,0.711-0.177,1.05  c0.132,0.514,0.326,0.996,0.565,1.455c0.896-0.079,1.738-0.319,2.505-0.707C54.586,84.909,54.302,84.061,54.299,83.146z"/>
<path d="M51.823,83.818c0.037,0.357,0.088,0.707,0.176,1.043c0.088-0.339,0.142-0.689,0.177-1.05  c-0.07,0.003-0.137,0.021-0.209,0.021C51.917,83.833,51.872,83.818,51.823,83.818z"/>
<path d="M38.161,83.833c-0.197,0-0.384-0.034-0.576-0.06c-0.083,0.886-0.323,1.716-0.706,2.472c0.416,0.08,0.841,0.132,1.282,0.132  c0.347,0,0.679-0.053,1.011-0.102c-0.39-0.754-0.634-1.589-0.72-2.472C38.355,83.81,38.261,83.833,38.161,83.833z"/>
<path d="M38.161,75.064c1.573,0,2.945,0.84,3.718,2.088c0.736-0.424,1.55-0.715,2.423-0.844c-1.149-2.238-3.456-3.79-6.141-3.79  c-2.698,0-5.013,1.562-6.158,3.817c0.86,0.161,1.656,0.486,2.374,0.935C35.134,75.959,36.539,75.064,38.161,75.064z"/>
<path d="M35.044,82.527c0.029,0.198,0.062,0.398,0.062,0.605c0,0.797-0.23,1.532-0.602,2.177c0.717,0.447,1.514,0.775,2.375,0.936  c0.383-0.756,0.624-1.586,0.706-2.472C36.6,83.644,35.712,83.201,35.044,82.527z"/>
<path d="M33.836,80.058c-0.028-0.202-0.062-0.403-0.062-0.611c0-0.795,0.23-1.531,0.602-2.176c-0.717-0.448-1.514-0.773-2.374-0.935  c-0.385,0.757-0.626,1.587-0.709,2.474C32.282,78.938,33.17,79.381,33.836,80.058z"/>
<path d="M42.544,79.446c0,0.119-0.025,0.229-0.036,0.349c0.692-0.584,1.557-0.95,2.514-1.016c-0.086-0.886-0.331-1.716-0.72-2.471  c-0.873,0.129-1.687,0.42-2.423,0.844C42.293,77.822,42.544,78.604,42.544,79.446z"/>
<path d="M40.929,83.133c0-0.117,0.026-0.229,0.036-0.344c-0.691,0.581-1.557,0.951-2.513,1.015c0.086,0.883,0.331,1.718,0.72,2.472  c0.874-0.131,1.687-0.421,2.423-0.846C41.181,84.76,40.929,83.979,40.929,83.133z"/>
<path stroke="#000000" stroke-width="0.0093" stroke-miterlimit="10" d="M28.618,60.624c-0.023,0.281-0.073,0.554-0.073,0.838v11.51  c0.827,0.598,1.398,1.789,1.398,3.178c0,0.848-0.22,1.617-0.571,2.229c0.575-0.222,1.178-0.383,1.832-0.383  c0.047,0,0.091,0.012,0.137,0.014V64.723v-2.875L28.618,60.624z"/>
<path stroke="#000000" stroke-width="0.0093" stroke-miterlimit="10" d="M59.607,78.515c-0.187-0.493-0.304-1.054-0.304-1.66  c0-1.663,0.806-3.041,1.87-3.342V61.462c0-0.268-2.933,0.328-2.933,0.328l0.137,2.999v13.309  C58.811,78.182,59.219,78.33,59.607,78.515z"/>
<text x="0.0" y="105.75" font-size="4.5" font-weight="bold" font-family="Helvetica Neue, Helvetica, Arial-Unicode, Arial, Sans-serif" fill="#000000">Created by Ashley Fiveash</text><text x="0.0" y="110.25" font-size="4.5" font-weight="bold" font-family="Helvetica Neue, Helvetica, Arial-Unicode, Arial, Sans-serif" fill="#000000">from the Noun Project</text></svg>