<svg xmlns="http://www.w3.org/2000/svg" xmlns:xlink="http://www.w3.org/1999/xlink" version="1.1" id="Layer_1" x="0px" y="0px" width="100px" height="100px" viewBox="5.0 -10.0 100.0 135.0" enable-background="new 0 0 100 100" xml:space="preserve">
<g>
	<path d="M26.001,61.999C12.802,61.999,2.002,51.2,2.002,38s10.8-23.999,23.999-23.999h3.15c4.2-7.2,12-12,20.849-12   s16.649,4.8,20.699,12h3.3c13.199,0,23.999,10.799,23.999,23.999s-10.8,23.999-23.999,23.999v32.999c0,1.65-1.35,3-3,3H29.001   c-1.65,0-3-1.35-3-3V61.999z M26.001,26.001c0-3.15,0.6-6.15,1.65-9h-1.65c-11.549,0-20.999,9.45-20.999,20.999   s9.45,20.999,20.999,20.999c1.65,0,3,1.351,3,3v18h9v-12c0-0.9,0.6-1.5,1.5-1.5s1.5,0.6,1.5,1.5v12h7.5v-15   c0-0.899,0.6-1.5,1.5-1.5s1.5,0.601,1.5,1.5v15H59v-12c0-0.9,0.6-1.5,1.5-1.5c0.899,0,1.5,0.6,1.5,1.5v12h8.999v-18   c0-1.649,1.35-3,3-3c11.55,0,20.999-9.449,20.999-20.999s-9.449-20.999-20.999-20.999h-1.8c1.2,2.85,1.8,5.85,1.8,9v6   c0,0.9-0.6,1.5-1.5,1.5c-0.899,0-1.5-0.6-1.5-1.5v-6c0-11.549-9.45-20.999-20.999-20.999c-11.549,0-20.999,9.45-20.999,20.999v6   c0,0.9-0.6,1.5-1.5,1.5s-1.5-0.6-1.5-1.5V26.001z M29.001,94.998h41.998v-12H29.001V94.998z"/>
</g>
<text x="0.0" y="117.5" font-size="5.0" font-weight="bold" font-family="Helvetica Neue, Helvetica, Arial-Unicode, Arial, Sans-serif" fill="#000000">Created by Yorlmar Campos</text><text x="0.0" y="122.5" font-size="5.0" font-weight="bold" font-family="Helvetica Neue, Helvetica, Arial-Unicode, Arial, Sans-serif" fill="#000000">from the Noun Project</text></svg>