<svg xmlns="http://www.w3.org/2000/svg" xmlns:xlink="http://www.w3.org/1999/xlink" version="1.1" id="Layer_1" x="0px" y="0px" width="100px" height="100px" viewBox="5.0 -10.0 100.0 135.0" enable-background="new 0 0 100 100" xml:space="preserve">
<g>
	<path d="M32.205,27.134c2.646,0.276,5.174-3.145,5.543-6.69c0.37-3.548-1.555-5.881-4.201-6.16   c-2.648-0.276-5.173,3.146-5.547,6.691C27.634,24.524,29.557,26.856,32.205,27.134z"/>
	<path d="M35,72.588c0.961,2.752,2.008,8.277,2.492,12.283c0.49,4.043,5.355,3.547,5.062-0.52   c-0.211-2.906-0.593-11.36-3.012-18.404c-2.524-7.35-5.817-12.9-5.817-12.9c0.962-4.6,2.9-13.649,2.9-13.649   s3.367,7.54,11.039,11.795c4.331,2.291,6.372-1.172,3.901-3.322c-10.917-6.544-9.968-16.855-15.609-17.625   c-4.225-0.576-9.454-2.733-11.604-2.606C13.449,28.282,9.896,41.642,9.728,48.193c-0.106,4.09,4.078,4.506,4.779,0.369   c0.905-5.346,2.694-11.705,6.923-13.285c-1.003,5.504-4.032,15.026-4.032,15.026c-1.25,7.974,4.118,9.067,3.702,17.058   c-0.174,3.357-2.834,9.546-4.794,12.455c-2.294,3.402,1.692,6.066,4.353,2.863c2.364-2.846,4.824-6.738,6.496-11.432   c2.014-5.651,0.623-11.902,0.623-11.902C31.26,63.25,33.246,67.571,35,72.588z"/>
</g>
<g>
	<path d="M70.295,27.567c-2.688,0.027-4.906-3.655-4.941-7.258c-0.035-3.604,2.122-5.77,4.811-5.798   c2.691-0.028,4.907,3.655,4.946,7.258C75.142,25.375,72.987,27.539,70.295,27.567z"/>
	<path d="M63.169,73.035c-1.229,2.678-2.807,8.139-3.675,12.122c-0.876,4.021-5.725,3.061-5.042-1.003   c0.487-2.904,1.675-11.374,4.777-18.232c3.237-7.154,7.077-12.428,7.077-12.428c-0.531-4.719-3.193-17.41-3.193-17.41   s-9.429-2.163-13.875-14.399c-1.691-4.654,2.058-6.216,3.867-3.443c2.265,3.469,3.697,8.267,8.929,10.664   c4.084,1.871,14.497,0.864,16.648,1.196c10.908,1.682,11.96,15.114,11.509,21.721c-0.281,4.126-4.531,4.146-4.844-0.082   c-0.403-5.465-0.814-12.091-4.92-14.082c0.487,5.633,2.566,14.626,2.566,14.626c0.501,8.141-5.004,8.732-5.344,16.811   c-0.144,3.396,1.945,9.873,3.642,12.986c1.984,3.641-2.279,5.359-4.651,2.469s-4.214-7.238-5.451-12.119   c-1.49-5.877,0.503-12.035,0.503-12.035C67.817,63.994,65.409,68.154,63.169,73.035z"/>
</g>
<text x="0.0" y="117.5" font-size="5.0" font-weight="bold" font-family="Helvetica Neue, Helvetica, Arial-Unicode, Arial, Sans-serif" fill="#000000">Created by Thomas Le Bas</text><text x="0.0" y="122.5" font-size="5.0" font-weight="bold" font-family="Helvetica Neue, Helvetica, Arial-Unicode, Arial, Sans-serif" fill="#000000">from the Noun Project</text></svg>