<svg xmlns="http://www.w3.org/2000/svg" xmlns:xlink="http://www.w3.org/1999/xlink" version="1.1" id="Layer_1" x="0px" y="0px" width="100px" height="100px" viewBox="5.0 -10.0 100.0 135.0" enable-background="new 0 0 100 100" xml:space="preserve">
<g>
	<path fill="#000000" d="M38.535,39.663c6.086-0.786,10.216-7.673,9.211-15.381c-0.981-7.716-6.721-13.332-12.814-12.546   c-6.083,0.777-10.201,7.659-9.203,15.377C26.714,34.834,32.452,40.445,38.535,39.663z"/>
	<path fill="#000000" d="M24.963,59.923c5.291-1.139,8.365-7.656,6.885-14.572c-1.479-6.897-6.971-11.577-12.263-10.439   c-5.292,1.127-8.366,7.651-6.894,14.561C14.169,56.387,19.676,61.057,24.963,59.923z"/>
	<path fill="#000000" d="M61.985,39.663c6.081,0.782,11.813-4.829,12.797-12.55c1.001-7.718-3.12-14.6-9.198-15.377   c-6.094-0.786-11.821,4.83-12.819,12.546C51.76,31.99,55.897,38.877,61.985,39.663z"/>
	<path fill="#000000" d="M80.416,34.911c-5.301-1.138-10.793,3.542-12.276,10.439c-1.485,6.916,1.604,13.434,6.897,14.572   c5.293,1.134,10.783-3.536,12.274-10.451C88.778,42.562,85.697,36.039,80.416,34.911z"/>
	<path fill="#000000" d="M73.027,63.251c-2.908-2.557-6.061-4.384-7.812-7.97c-1.595-3.229-1.906-6.985-4.152-9.899   c-2.596-3.341-6.694-5.338-10.924-5.338c-0.044,0-0.096,0.008-0.15,0.008c-0.034,0-0.09-0.008-0.146-0.008   c-4.226,0-8.314,1.997-10.894,5.338c-2.271,2.914-2.58,6.671-4.16,9.899c-1.753,3.586-4.908,5.413-7.829,7.97   c-2.978,2.598-4.721,6.461-4.721,10.42c0,7.617,6.177,13.804,13.805,13.804c2.556,0,5.085-0.715,7.259-2.075   c2.198-1.364,3.907-1.174,6.686-1.257c2.807,0.083,4.513-0.107,6.702,1.257c2.179,1.36,4.697,2.075,7.267,2.075   c7.615,0,13.797-6.187,13.797-13.804C77.755,69.712,76.021,65.849,73.027,63.251z"/>
</g>
<text x="0.0" y="117.5" font-size="5.0" font-weight="bold" font-family="Helvetica Neue, Helvetica, Arial-Unicode, Arial, Sans-serif" fill="#000000">Created by Nick Kinling</text><text x="0.0" y="122.5" font-size="5.0" font-weight="bold" font-family="Helvetica Neue, Helvetica, Arial-Unicode, Arial, Sans-serif" fill="#000000">from the Noun Project</text></svg>