<?xml version="1.0" encoding="utf-8"?>
<!-- Generator: Adobe Illustrator 15.0.0, SVG Export Plug-In . SVG Version: 6.00 Build 0)  -->
<!DOCTYPE svg PUBLIC "-//W3C//DTD SVG 1.1//EN" "http://www.w3.org/Graphics/SVG/1.1/DTD/svg11.dtd">
<svg version="1.1" id="Layer_1" xmlns="http://www.w3.org/2000/svg" xmlns:xlink="http://www.w3.org/1999/xlink" x="0px" y="0px"
	 width="400px" height="400px" viewBox="0 0 400 400" enable-background="new 0 0 400 400" xml:space="preserve">
<g>
	<path fill="#131342" d="M65.103,319.593l78.527-78.525c-35.083-30.907-79.99-44.803-123.915-41.729
		C19.56,242.333,34.702,285.356,65.103,319.593z"/>
	<path fill="#131342" d="M200,184.699l25.726-25.728c-34.796-38.934-50.811-88.802-48.115-137.831
		c-35.081,4.361-69.1,19.008-97.205,43.971L200,184.699z"/>
	<path fill="#131342" d="M184.704,199.999L65.103,80.408c-24.959,28.108-39.6,62.128-43.963,97.2
		c49.031-2.688,98.904,13.319,137.838,48.115L184.704,199.999z"/>
	<path fill="#131342" d="M241.068,143.634l78.521-78.523c-34.234-30.41-77.26-45.551-120.256-45.391
		C196.258,63.646,210.159,108.551,241.068,143.634z"/>
	<path fill="#131342" d="M334.888,80.412l-78.526,78.522c35.09,30.903,79.99,44.803,123.924,41.725
		C380.436,157.666,365.295,114.641,334.888,80.412z"/>
	<path fill="#131342" d="M241.022,174.272l-25.729,25.726l119.596,119.588c24.965-28.107,39.603-62.125,43.97-97.199
		C329.829,225.08,279.955,209.071,241.022,174.272z"/>
	<path fill="#131342" d="M80.406,334.889c34.236,30.413,77.257,45.547,120.255,45.392c3.077-43.927-10.824-88.828-41.73-123.915
		L80.406,334.889z"/>
	<path fill="#131342" d="M200,215.298l-25.732,25.73c34.798,38.929,50.808,88.803,48.124,137.83
		c35.069-4.362,69.099-19.005,97.199-43.967L200,215.298z"/>
</g>
</svg>
