<?xml version="1.0" encoding="utf-8"?>
<!-- Generator: Adobe Illustrator 15.0.0, SVG Export Plug-In . SVG Version: 6.00 Build 0)  -->
<!DOCTYPE svg PUBLIC "-//W3C//DTD SVG 1.1//EN" "http://www.w3.org/Graphics/SVG/1.1/DTD/svg11.dtd">
<svg version="1.1" id="Layer_1" xmlns="http://www.w3.org/2000/svg" xmlns:xlink="http://www.w3.org/1999/xlink" x="0px" y="0px"
	 width="400px" height="400px" viewBox="0 0 400 400" enable-background="new 0 0 400 400" xml:space="preserve">
<g>
	<path fill="#131342" d="M145.688,153.072c28.836-3.724,48.398-36.351,43.64-72.862c-4.647-36.556-31.841-63.163-60.708-59.44
		c-28.818,3.68-48.33,36.281-43.596,72.851C89.682,130.2,116.871,156.782,145.688,153.072z"/>
	<path fill="#131342" d="M81.389,249.056c25.069-5.396,39.635-36.274,32.62-69.033c-7.008-32.679-33.026-54.845-58.098-49.46
		c-25.07,5.347-39.636,36.25-32.659,68.989C30.254,232.305,56.343,254.427,81.389,249.056z"/>
	<path fill="#131342" d="M256.78,153.072c28.812,3.71,55.961-22.872,60.627-59.453c4.739-36.569-14.783-69.171-43.576-72.85
		c-28.868-3.723-55.999,22.883-60.733,59.439C208.339,116.722,227.938,149.349,256.78,153.072z"/>
	<path fill="#131342" d="M344.095,130.562c-25.106-5.396-51.127,16.775-58.152,49.453c-7.039,32.766,7.601,63.645,32.671,69.034
		c25.083,5.377,51.09-16.751,58.146-49.51C383.712,166.806,369.115,135.909,344.095,130.562z"/>
	<path fill="#131342" d="M309.094,264.819c-13.776-12.116-28.718-20.768-37.012-37.755c-7.558-15.297-9.031-33.097-19.668-46.899
		c-12.298-15.827-31.709-25.283-51.752-25.283c-0.206,0-0.456,0.038-0.711,0.038c-0.156,0-0.425-0.038-0.693-0.038
		c-20.019,0-39.385,9.456-51.608,25.283c-10.76,13.803-12.223,31.603-19.705,46.899c-8.307,16.987-23.252,25.639-37.092,37.755
		c-14.109,12.311-22.367,30.609-22.367,49.365c0,36.089,29.269,65.394,65.406,65.394c12.104,0,24.082-3.385,34.389-9.831
		c10.412-6.458,18.506-5.56,31.672-5.952c13.297,0.395,21.378-0.506,31.747,5.952c10.331,6.446,22.26,9.831,34.433,9.831
		c36.075,0,65.361-29.305,65.361-65.394C331.491,295.43,323.278,277.13,309.094,264.819z"/>
</g>
</svg>
