<?xml version="1.0" encoding="utf-8"?>
<!-- Generator: Adobe Illustrator 15.0.0, SVG Export Plug-In . SVG Version: 6.00 Build 0)  -->
<!DOCTYPE svg PUBLIC "-//W3C//DTD SVG 1.1//EN" "http://www.w3.org/Graphics/SVG/1.1/DTD/svg11.dtd">
<svg version="1.1" id="Layer_1" xmlns="http://www.w3.org/2000/svg" xmlns:xlink="http://www.w3.org/1999/xlink" x="0px" y="0px"
	 width="400px" height="400px" viewBox="200 200 400 400" enable-background="new 200 200 400 400" xml:space="preserve">
<g>
	<g>
		<g>
			<g>
				<path fill="#131342" d="M311.2,471.942c0,0,39.797-33.72,38.596-84.35c0,0,0-62.674,14.467-80.767
					c0,0-16.259,74.029,14.758,107.858c31.025,33.841,108.148,19.914,108.148,19.914s-28.914,16.881-89.166,12.055
					c0,0-48.208,14.456-69.903,39.787L311.2,471.942z"/>
				<path fill="#131342" d="M312.431,473.405c0.411-0.351,40.478-34.922,39.267-85.863c0-0.58,0.15-62.178,14.047-79.53
					l-3.345-1.601c-0.66,3.068-16.098,75.385,15.219,109.544c31.377,34.222,106.706,21.075,109.89,20.495l-1.302-3.505
					c-0.28,0.15-29.234,16.529-88.064,11.804l-0.351-0.029l-0.34,0.11c-1.992,0.581-48.988,14.917-70.794,40.348l2.683-0.2
					l-16.9-14.477L312.431,473.405z M329.541,487.662c21.075-24.6,68.522-39.057,69.003-39.197l-0.702,0.07
					c61.013,4.905,90.107-12.175,90.368-12.355l-1.383-3.454c-0.76,0.141-76.45,13.357-106.406-19.322
					c-30.015-32.724-14.477-105.436-14.316-106.166l-3.344-1.597c-14.698,18.387-14.858,79.359-14.858,81.953
					c1.161,49.209-37.535,82.588-37.925,82.919l-1.703,1.431l1.682,1.463l16.9,14.466l1.441,1.232L329.541,487.662z"/>
			</g>
			<g>
				<path fill="#131342" d="M247.634,573.754c-8.089,8.351-19.653,10.243-25.88,4.215l0,0c-6.208-6.036-4.706-17.681,3.363-26.01
					l60.492-62.435c8.069-8.341,19.653-10.243,25.88-4.205l0,0c6.198,5.987,4.696,17.66-3.384,26.011L247.634,573.754z"/>
				<path fill="#131342" d="M246.263,572.441c-7.329,7.55-17.742,9.433-23.188,4.167c-2.083-2.023-3.204-4.857-3.264-8.189
					c-0.069-5.107,2.423-10.754,6.667-15.14l60.483-62.434c7.339-7.569,17.751-9.452,23.208-4.154
					c5.446,5.255,3.915,15.729-3.435,23.316L246.263,572.441z M309.478,512.651c8.79-9.091,10.292-21.966,3.344-28.694
					c-6.968-6.729-19.784-4.825-28.574,4.256l-60.482,62.424c-5.016,5.166-7.839,11.673-7.739,17.859
					c0.06,4.366,1.592,8.102,4.404,10.854c6.969,6.718,19.774,4.815,28.575-4.266L309.478,512.651z"/>
			</g>
			<g>
				<path fill="#131342" d="M397.172,256.928c-17.682,16.459-31.268,36.414-39.277,57.688
					c-14.888,39.537-9.321,78.693,14.888,104.745c15.758,16.92,38.435,26.723,63.865,27.612
					c34.662,1.222,71.065-13.476,99.88-40.348c28.873-26.872,46.133-62.163,47.376-96.82c0.921-25.786-7.028-48.463-22.987-65.593
					C522.49,202.938,449.043,208.65,397.172,256.928z M549.813,254.564c13.145,14.116,19.692,33.04,18.911,54.695
					c-1.091,30.671-16.6,62.094-42.54,86.244c-25.9,24.138-58.34,37.363-88.996,36.272c-21.685-0.752-40.106-8.631-53.283-22.778
					c-20.204-21.724-24.609-55.009-11.793-89.035c7.179-19.098,19.423-37.049,35.402-51.927
					C453.259,225.469,517.085,219.418,549.813,254.564z"/>
			</g>
		</g>
		<g>
			<polygon fill="#131342" points="499.514,237.719 371.231,360.085 367.296,355.964 495.579,233.599 			"/>
		</g>
		<g>
			<polygon fill="#131342" points="538.981,250.544 380.081,399.567 376.196,395.412 535.087,246.39 			"/>
		</g>
		<g>
			<polygon fill="#131342" points="562.71,280.145 410.718,426.209 406.773,422.104 558.754,276.04 			"/>
		</g>
		<g>
			<polygon fill="#131342" points="564.741,322.515 459.136,430.084 455.081,426.089 560.677,318.525 			"/>
		</g>
		<g>
			<polygon fill="#131342" points="558.724,351.174 452.138,244.587 456.161,240.558 562.749,347.145 			"/>
		</g>
		<g>
			<polygon fill="#131342" points="535.007,385.681 417.566,265.292 421.63,261.317 539.081,381.701 			"/>
		</g>
		<g>
			
				<rect x="369.534" y="347.29" transform="matrix(0.704 0.7102 -0.7102 0.704 381.5233 -215.0464)" fill="#131342" width="158.38" height="5.696"/>
		</g>
		<g>
			<polygon fill="#131342" points="461.958,423.165 371.171,329.414 375.255,325.454 466.043,419.199 			"/>
		</g>
	</g>
	<g>
		<path fill="#131342" d="M372.112,533.376c0,23.729,19.123,42.951,42.73,42.951c3.124,0,6.188-0.34,9.11-0.98
			c-2.442-3.966-9.291-13.277-22.286-18.703c-0.661-0.311-16.118-7.628-19.443-21.226c-1.803-7.368,0.261-15.027,6.197-22.687
			l-0.169,0.181c0.32-0.44,7.048-10.553,18.28-11.604c7.409-0.69,14.798,2.693,21.927,10.122l0.22,0.21l0.182,0.271
			c4.175,6.446,17.169,22.626,28.684,22.947c0.01-0.492,0.029-0.981,0.029-1.482c0-23.709-19.152-42.962-42.741-42.962
			C391.235,490.425,372.112,509.678,372.112,533.376z"/>
		<path fill="#131342" d="M423.493,515.855c-5.566-5.747-11.074-8.431-16.319-7.95c-8.009,0.74-13.335,8.57-13.356,8.641
			l-0.09,0.131l-0.069,0.1c-4.625,5.987-6.318,11.754-5.007,17.07c2.543,10.482,15.658,16.73,15.698,16.73
			c16.37,6.896,24.09,19.144,26.121,22.786c13.447-5.325,23.599-17.302,26.352-31.908
			C440.474,540.504,425.494,518.829,423.493,515.855z"/>
	</g>
</g>
</svg>
