<?xml version="1.0" encoding="utf-8"?>
<!-- Generator: Adobe Illustrator 15.0.0, SVG Export Plug-In . SVG Version: 6.00 Build 0)  -->
<!DOCTYPE svg PUBLIC "-//W3C//DTD SVG 1.1//EN" "http://www.w3.org/Graphics/SVG/1.1/DTD/svg11.dtd">
<svg version="1.1" id="Layer_1" xmlns="http://www.w3.org/2000/svg" xmlns:xlink="http://www.w3.org/1999/xlink" x="0px" y="0px"
	 width="400px" height="400px" viewBox="200 200 400 400" enable-background="new 200 200 400 400" xml:space="preserve">
<g>
	<path fill="#131342" d="M288.364,311.588c18.435,0,33.441-18.886,33.441-42.102c0-23.226-15.006-42.116-33.441-42.116
		c-18.447,0-33.449,18.89-33.449,42.116C254.919,292.703,269.92,311.588,288.364,311.588z M288.364,238.604
		c12.243,0,22.205,13.855,22.205,30.882c0,17.022-9.962,30.871-22.205,30.871c-12.25,0-22.217-13.849-22.217-30.871
		C266.156,252.459,276.114,238.604,288.364,238.604z"/>
	<path fill="#131342" d="M575.888,393.431c-0.18-19.359-9.557-50.116-22.742-63.298c-14.152-14.151-46.695-16.722-69.757-6.604
		c-85.74-24.247-160.005-5.586-172.327-2.133c-22.473-7.507-51.153-4.306-64.211,8.737c-13.179,13.182-22.561,43.939-22.738,63.298
		c-0.077,8.581,0.271,52.061,14.957,65.544c1.927,1.771,4.082,2.957,6.357,3.678l4.686,95.092c0.21,9.294,4.911,26.848,21.15,26.848
		c6.648,0,14.377-1.557,19.398-7.548c3.327,1.619,7.333,2.75,11.475,2.75c2.459,0,4.952-0.395,7.363-1.299
		c4.92-1.852,13.171-7.468,13.171-24.312c0-10.861-0.805-52.033-1.679-93.706c6.125-0.564,11.157-2.833,14.842-6.942
		c8.885-9.915,7.635-27.063,6.633-40.836c-0.36-4.936-0.696-9.595-0.388-12.362c0.036-0.333,2.052-19.349-0.917-38.413
		c4.935-1.394,9.799-2.37,12.643-2.538c1.743,40.006,9.63,194.505,9.702,195.844c0.041,14.076,11.618,23.475,22.317,24.122
		c0.369,0.024,0.75,0.04,1.125,0.04c4.583,0,9.631-1.697,13.404-5.903c3.998,3.952,8.902,6.128,14.221,6.128
		c1.166,0,2.356-0.104,3.558-0.315c9.141-1.606,16.428-9.188,17.714-18.46c0.021-0.18,0.041-0.364,0.048-0.544
		c0.064-1.584,6.298-154.829,9.63-202.437c3.125,0.454,8.244,1.8,12.893,3.461c0.159,0.062,0.32,0.082,0.479,0.128
		c-3.076,19.226-1.033,38.555-1.002,38.891c0.313,2.768-0.031,7.431-0.384,12.359c-1.002,13.776-2.252,30.929,6.642,40.844
		c3.677,4.11,8.697,6.377,14.833,6.938c-0.872,41.679-1.678,82.851-1.678,93.707c0,16.84,8.26,22.464,13.18,24.308
		c2.411,0.914,4.908,1.302,7.363,1.302c4.15,0,8.147-1.126,11.473-2.748c5.02,5.996,12.746,7.547,19.401,7.547
		c16.242,0,20.938-17.558,21.139-26.699l4.693-95.244c2.284-0.713,4.436-1.898,6.362-3.669
		C575.604,445.499,575.965,402.015,575.888,393.431z M327.47,446.035c-1.603,1.791-3.834,2.824-6.706,3.214
		c-0.966-45.596-1.939-88.559-1.959-89.416c-0.067-3.101-2.503-5.539-5.74-5.489c-3.101,0.07-5.556,2.646-5.492,5.743
		c0.044,1.698,3.87,170.468,3.87,194.091c0,5.275-1.025,11.966-5.9,13.792c-3.237,1.23-7.458,0.238-10.287-1.161
		c0.094-0.493,0.216-0.957,0.288-1.471l0.064-0.428c0.497-2.969,0.256-62.737,0.08-98.093c-0.016-3.093-2.532-5.589-5.616-5.589
		c-0.008,0-0.026,0-0.03,0c-3.105,0.013-5.607,2.537-5.583,5.653c0.185,36.665,0.357,92.625,0.075,96.186l-0.099,0.621
		c-0.066,0.437-0.14,0.917-0.234,1.41c-0.895,1.049-1.346,2.348-1.342,3.669c-1.531,2.477-4.667,4.591-11.599,4.591
		c-9.354,0-9.914-15.731-9.924-16.015l-4.709-95.533c1.551-0.851,2.927-2.035,4.078-3.525c7.053-9.126,4.669-28.065,1.092-50.058
		c-0.728-4.479-1.362-8.356-1.617-11.024c-0.673-6.95,5.857-27.493,10.132-38.804c1.095-2.904-0.366-6.145-3.274-7.24
		c-2.899-1.089-6.144,0.367-7.24,3.267c-1.222,3.245-11.943,32.038-10.799,43.851c0.293,3.037,0.947,7.083,1.71,11.753
		c2.015,12.366,5.754,35.381,1.111,41.39c-0.399,0.504-0.726,0.697-1.32,0.753c-0.961,0.073-2.236,0-3.832-1.458
		c-7.711-7.091-11.531-34.118-11.318-57.168c0.156-16.805,8.684-44.694,19.449-55.455c10.85-10.845,42.493-13.768,62.594-1.596
		c13.115,7.95,15.831,42.059,13.531,62.606c-0.424,3.797-0.063,8.716,0.345,14.417C332.068,424.548,333.174,439.679,327.47,446.035z
		 M437.841,347.926c-1.883,1.226-3.06,3.198-3.237,5.414c-3.204,42.074-9.581,198.237-9.903,206.199
		c-0.704,4.311-4.237,7.949-8.487,8.693c-4.178,0.738-7.928-1.513-10.628-6.298c0.088-0.552,0.197-1.085,0.265-1.665
		c0.032-0.232,0.048-0.47,0.048-0.713l-0.296-105.483c-0.017-3.094-2.527-5.601-5.622-5.601c-0.004,0-0.012,0-0.02,0
		c-3.1,0.007-5.608,2.539-5.6,5.64l0.296,105.107c-0.605,4.339-2.564,9.253-8.148,8.922c-5.544-0.334-11.746-5.733-11.77-13.218
		c-0.088-1.642-8.424-164.919-9.839-199.122c-0.1-2.359-1.282-4.493-3.236-5.855c-3.781-2.627-11.465-2.301-22.858,0.944
		c-2.443-8.646-6.309-16.468-12.294-21.576c25.129-5.174,81.46-13.007,144.345,2.521c-4.431,4.896-7.482,11.458-9.55,18.604
		C443.605,344.232,439.259,346.999,437.841,347.926z M538.653,557.464c-0.008,0.161-0.569,15.896-9.923,15.896
		c-6.942,0-10.079-2.123-11.598-4.606c0-1.306-0.448-2.602-1.338-3.646c-0.087-0.496-0.159-0.977-0.23-1.417l-0.062-0.361
		c-0.323-3.845-0.151-59.791,0.041-96.453c0.015-3.102-2.479-5.633-5.581-5.649c-0.016,0-0.016,0-0.035,0
		c-3.085,0-5.604,2.496-5.613,5.593c-0.188,35.359-0.424,95.124,0.08,98.088l0.067,0.433c0.076,0.514,0.189,0.978,0.286,1.463
		c-2.821,1.407-7.044,2.396-10.295,1.166c-4.868-1.826-5.897-8.514-5.897-13.793c0-23.622,3.83-192.389,3.869-194.092
		c0.072-3.101-2.384-5.678-5.488-5.743c-3.108-0.164-5.672,2.388-5.74,5.489c-0.019,0.853-0.993,43.816-1.967,89.408
		c-2.868-0.385-5.104-1.423-6.697-3.209c-5.709-6.357-4.6-21.48-3.803-32.536c0.421-5.697,0.774-10.615,0.345-14.413
		c-2.295-20.544,0.421-54.652,13.546-62.602c20.091-12.18,51.729-9.256,62.587,1.59c10.768,10.772,19.3,38.663,19.454,55.459
		c0.215,23.059-3.615,50.091-11.33,57.172c-1.594,1.459-2.893,1.548-3.83,1.459c-0.593-0.057-0.93-0.248-1.309-0.754
		c-4.652-6.017-0.902-29.043,1.108-41.413c0.762-4.667,1.419-8.692,1.708-11.729c1.136-11.819-9.574-40.612-10.802-43.85
		c-1.097-2.905-4.347-4.361-7.238-3.268c-2.907,1.096-4.37,4.337-3.273,7.241c4.271,11.309,10.801,31.849,10.132,38.803
		c-0.26,2.665-0.893,6.53-1.624,11.005c-3.579,21.996-5.968,40.952,1.087,50.081c1.15,1.486,2.519,2.673,4.074,3.521
		L538.653,557.464z"/>
	<path fill="#131342" d="M511.637,311.588c18.443,0,33.451-18.886,33.451-42.102c0-23.226-15.008-42.116-33.451-42.116
		s-33.44,18.89-33.44,42.116C478.196,292.703,493.202,311.588,511.637,311.588z M511.637,238.604
		c12.251,0,22.213,13.855,22.213,30.882c0,17.022-9.962,30.871-22.213,30.871c-12.25,0-22.208-13.849-22.208-30.871
		C489.429,252.459,499.387,238.604,511.637,238.604z"/>
	<path fill="#131342" d="M395.557,299.636c18.445,0,33.446-18.89,33.446-42.112c0-23.226-15.001-42.12-33.446-42.12
		c-18.443,0-33.445,18.89-33.445,42.12C362.104,280.746,377.114,299.636,395.557,299.636z M395.557,226.645
		c12.239,0,22.214,13.849,22.214,30.884c0,17.023-9.967,30.875-22.214,30.875c-12.246,0-22.216-13.852-22.216-30.875
		C373.341,240.493,383.312,226.645,395.557,226.645z"/>
	<path fill="#131342" d="M396.131,276.774c3.926,0,8.352-1.107,12.899-4.192c1.711-1.166,2.155-3.491,0.993-5.201
		c-1.153-1.715-3.492-2.153-5.203-1.001c-9.054,6.153-15.912,0.883-16.686,0.238c-1.57-1.323-3.926-1.144-5.263,0.419
		c-1.35,1.571-1.17,3.931,0.4,5.28C385.643,274.363,390.338,276.774,396.131,276.774z"/>
	<path fill="#131342" d="M511.35,290.337c0.159,0,0.336,0,0.513-0.004c4.734-0.184,8.949-2.859,12.515-7.942
		c1.193-1.694,0.784-4.027-0.914-5.218c-1.69-1.189-4.022-0.774-5.212,0.92c-2.143,3.055-4.387,4.659-6.653,4.753
		c-3.357,0.102-6.713-2.929-7.731-4.142c-1.306-1.589-3.665-1.814-5.257-0.497c-1.602,1.312-1.817,3.672-0.512,5.266
		C498.684,284.184,503.971,290.337,511.35,290.337z"/>
	<path fill="#131342" d="M289.213,290.227c0.435,0.036,0.862,0.056,1.292,0.056c4.348,0,8.498-1.993,12.368-5.938
		c1.446-1.479,1.426-3.848-0.048-5.3c-1.474-1.444-3.846-1.424-5.295,0.052c-2.591,2.643-5.138,3.868-7.612,3.671
		c-3.799-0.32-7.143-4.02-8.114-5.417c-1.166-1.703-3.487-2.138-5.193-0.981c-1.711,1.162-2.158,3.492-0.998,5.202
		C275.836,281.886,281.087,289.496,289.213,290.227z"/>
</g>
</svg>
