<?xml version="1.0" encoding="utf-8"?>
<!-- Generator: Adobe Illustrator 15.0.0, SVG Export Plug-In . SVG Version: 6.00 Build 0)  -->
<!DOCTYPE svg PUBLIC "-//W3C//DTD SVG 1.1//EN" "http://www.w3.org/Graphics/SVG/1.1/DTD/svg11.dtd">
<svg version="1.1" id="Layer_1" xmlns="http://www.w3.org/2000/svg" xmlns:xlink="http://www.w3.org/1999/xlink" x="0px" y="0px"
	 width="400px" height="400px" viewBox="200 200 400 400" enable-background="new 200 200 400 400" xml:space="preserve">
<g>
	<g>
		<path fill="#131342" d="M494.457,387.82c-14.397-0.941-26.962,1.565-37.798,6.037c-12.609-44.99-36.769-63.874-37.861-64.705
			c-3.44-2.629-8.365-1.97-11.012,1.478c-2.627,3.45-1.971,8.382,1.479,11.014c0.226,0.179,22.156,17.432,33.099,59.787
			c-4.841,3.155-9.242,6.65-13.172,10.301c-0.363,0.304-0.75,0.671-1.216,1.132c-13.82,13.78-37.5,8.322-45.149,0
			c-0.015-0.019-0.029-0.024-0.044-0.044c-5.356-6.493-11.556-13.256-18.377-19.521c1.312-5.661,5.664-15.244,20.126-18.571
			c3.612-0.836,5.867-4.436,5.033-8.045c-0.833-3.614-4.426-5.868-8.046-5.031c-15.898,3.659-24.21,13.384-28.121,22.514
			c-14.5-10.781-31.069-18.063-48.329-15.892c-4.312,0.544-7.356,4.476-6.812,8.784c0.534,4.307,4.47,7.348,8.777,6.814
			c25.097-3.171,51.98,23.483,69.231,46.025c0.146,0.206,0.298,0.412,0.519,0.735c3.235,4.666,13.271,21.896,12.213,54.094
			c-0.01,0.249-0.01,0.44-0.02,0.686c-1,39.523-3.058,91.034-7.008,94.6c-6.454,5.842,52.5,9.537,43.223,0
			c-5.777-5.942-7.399-58.934-7.806-97.972c-0.015-2.362,0.151-33.922,15.627-51.985c0.608-0.696,1.216-1.387,1.863-2.078
			c6.175-6.615,12.79-11.908,19.837-15.868c0.02-0.009,0.044-0.029,0.068-0.044c11.757-6.592,24.68-9.457,38.651-8.562
			c4.272,0.274,8.07-3.003,8.346-7.335C502.074,391.841,498.789,388.099,494.457,387.82z M417.308,472.229
			c0.005,0.01,0.016,0.044,0.016,0.054l0.068,9.561C417.356,478.512,417.327,475.316,417.308,472.229z"/>
		<path fill="#131342" d="M327.024,495.585c-49.869,0-90.443-42.32-90.443-94.325c0-34.626,18.44-66.59,47.425-82.97
			c-0.361-3.428-0.548-6.866-0.548-10.265c0-51.769,40.386-93.885,90.014-93.885c30.325,0,58.769,16.152,75.322,42.469
			c1.73-0.084,3.431-0.132,5.106-0.132c60.395,0,109.519,51.27,109.519,114.296c0,63.026-49.124,114.292-109.519,114.292
			c-6.209,0-12.429-0.544-18.484-1.627c-4.117-0.731-6.861-4.671-6.126-8.787c0.734-4.116,4.665-6.88,8.786-6.126
			c5.181,0.922,10.503,1.392,15.824,1.392c52.034,0,94.375-44.478,94.375-99.143c0-54.669-42.341-99.146-94.375-99.146
			c-2.715,0-5.499,0.142-8.507,0.424l-4.921,0.466l-2.41-4.312c-13.409-24.001-38.161-38.911-64.591-38.911
			c-41.282,0-74.861,35.316-74.861,78.737c0,4.394,0.363,8.868,1.078,13.293l0.902,5.567l-5.067,2.46
			c-26.601,12.91-43.79,41.135-43.79,71.909c0,43.659,33.772,79.184,75.291,79.184c7.615,0,15.133-1.197,22.342-3.549
			c3.964-1.309,8.252,0.862,9.551,4.848c1.304,3.974-0.867,8.252-4.847,9.551C345.343,494.135,336.247,495.585,327.024,495.585z"/>
	</g>
	<path fill="#131342" stroke="#231F20" stroke-width="4" stroke-miterlimit="10" d="M384.366,485.863"/>
</g>
</svg>
