<?xml version="1.0" encoding="utf-8"?>
<!-- Generator: Adobe Illustrator 15.0.0, SVG Export Plug-In . SVG Version: 6.00 Build 0)  -->
<!DOCTYPE svg PUBLIC "-//W3C//DTD SVG 1.1//EN" "http://www.w3.org/Graphics/SVG/1.1/DTD/svg11.dtd">
<svg version="1.1" id="Layer_1" xmlns="http://www.w3.org/2000/svg" xmlns:xlink="http://www.w3.org/1999/xlink" x="0px" y="0px"
	 width="400px" height="400px" viewBox="0 0 400 400" enable-background="new 0 0 400 400" xml:space="preserve">
<g>
	<polygon fill="#131342" points="297.715,184.86 321.969,192.002 340.617,178.258 321.969,160.658 	"/>
	<polygon fill="#131342" points="300.84,276.01 279.766,257.367 252.357,282.221 276.602,298.379 	"/>
	<polygon fill="#131342" points="86.943,216.346 100.697,227.346 129.56,221.852 110.31,210.156 	"/>
	<polygon fill="#131342" points="93.913,111.788 74.144,105.579 70.333,131 91.636,133.823 	"/>
	<polygon fill="#131342" points="299.281,225.037 292.361,228.494 292.361,235.914 301.746,235.914 	"/>
	<polygon fill="#131342" points="292.361,63.559 280.709,49.917 269.059,53.913 279.041,73.215 	"/>
	<polygon fill="#131342" points="128.306,147.041 115.718,147.041 112.353,168.017 128.306,168.017 	"/>
	<path fill="#131342" d="M258.893,130.641c-9.213-34.396-41.109-52.375-72.292-44.025c-31.16,8.351-49.795,39.863-40.578,74.264
		c11.531,43.033,42.312,70.314,75.336,69.49c-0.244,0.385-0.367,0.824-0.504,1.258c-5.533,2.199-15.08,7.195-20.338,16.82
		c-4.432,8.129-4.855,17.721-1.236,28.525c2.119,6.318,4.617,12.189,7.023,17.861c9.83,23.096,16.93,39.793-8.866,63.447
		l4.172,4.541c29.004-26.6,19.953-47.877,10.373-70.404c-2.369-5.561-4.812-11.316-6.857-17.408
		c-3.039-9.086-2.777-17.02,0.775-23.566c4.227-7.777,12.205-12.014,16.939-13.953c0.207,0.141,0.381,0.287,0.604,0.4
		c-2.684,2.59-6.027,6.807-4.928,10.914c1.139,4.217,7.523,2.992,12.023,1.777c4.516-1.203,10.65-3.332,9.518-7.549
		c-1.1-4.113-6.096-6.086-9.717-6.996c0.793-1.227,1.111-2.738,0.705-4.254c-0.4-1.48-1.396-2.629-2.654-3.301
		C257.406,212.682,270.418,173.668,258.893,130.641z M189.375,96.961c4.119-1.105,8.325-1.664,12.487-1.664
		c1.213,0,2.404,0.064,3.594,0.152c-38.086,14.117-48.037,45.375-50.389,56.256C151.22,126.344,165.129,103.454,189.375,96.961z"/>
	<polygon fill="#131342" points="112.353,281.98 126.215,289.168 136.051,273.604 124.167,268.688 	"/>
	<polygon fill="#131342" points="145.881,324.809 172.099,324.809 176.191,310.475 149.16,314.572 	"/>
	<polygon fill="#131342" points="46.744,296.18 55.755,307.598 70.333,299.82 61.484,293.676 	"/>
	<polygon fill="#131342" points="373.646,100.473 357.258,86.395 341.689,105.579 354.801,115.885 	"/>
	<polygon fill="#131342" points="348.27,274.828 377.756,281.98 380.621,257.621 350.086,257.621 	"/>
	<polygon fill="#131342" points="301.746,338.742 317.115,345.287 327.77,332.596 314.654,326.449 	"/>
	<path fill="#131342" d="M356.426,200.906l19.846,2.432l5.803-15.292l-23.502-2.969L356.426,200.906z M362.098,189.667l14.285,1.805
		l-2.807,7.393l-12.514-1.528L362.098,189.667z"/>
	<path fill="#131342" d="M322.49,299.115c-40.74,7.115-54.771,53.641-54.912,54.105l2.965,0.861
		c0.129-0.449,13.65-45.148,52.484-51.932L322.49,299.115z"/>
	<path fill="#131342" d="M160.295,273.918l3.067-0.309c-0.065-0.631-7.131-63.395-67.139-99.214l-1.576,2.645
		C153.285,212.041,160.232,273.311,160.295,273.918z"/>
	<path fill="#131342" d="M285.564,171.214c1.707-35.561,15.107-47,26.934-57.096c15.076-12.876,28.102-23.996,12.686-76.94
		l-2.963,0.867c14.857,51.025,3.131,61.046-11.729,73.733c-12.301,10.501-26.238,22.401-28.008,59.283L285.564,171.214z"/>
	<path fill="#131342" d="M33.228,165.412l-15.303,10.199l9.234,19.329L50.142,181L33.228,165.412z M23.169,177.056l9.658-6.427
		l10.518,9.695l-14.431,8.752L23.169,177.056z"/>
	<path fill="#131342" d="M87.746,322.006l21.475,5.23l5.752-15.592l-16.227-6.59L87.746,322.006z M109.742,313.953l-3.105,8.422
		l-12.285-2.996l6-9.24L109.742,313.953z"/>
	<path fill="#131342" d="M136.441,72.153l-13.31-5.652l-5.299,12.246l11.217,9.088L136.441,72.153z M122.839,77.518l2.438-5.642
		l5.625,2.39l-3.338,7.072L122.839,77.518z"/>
	<path fill="#131342" d="M321.221,273.197v12.627l16.309-2.1l-4.309-16.982L321.221,273.197z M325.33,281.156v-5.506l5.203-2.791
		l1.875,7.381L325.33,281.156z"/>
	<path fill="#131342" d="M46.472,235.729l-0.086,3.082c64.086,1.709,99.1,30.506,99.441,30.799l1.982-2.357
		C147.463,266.953,111.708,237.463,46.472,235.729z"/>
</g>
</svg>
