<?xml version="1.0" encoding="utf-8"?>
<!-- Generator: Adobe Illustrator 15.0.0, SVG Export Plug-In . SVG Version: 6.00 Build 0)  -->
<!DOCTYPE svg PUBLIC "-//W3C//DTD SVG 1.1//EN" "http://www.w3.org/Graphics/SVG/1.1/DTD/svg11.dtd">
<svg version="1.1" id="Layer_1" xmlns="http://www.w3.org/2000/svg" xmlns:xlink="http://www.w3.org/1999/xlink" x="0px" y="0px"
	 width="400px" height="400px" viewBox="200 200 400 400" enable-background="new 200 200 400 400" xml:space="preserve">
<g>
	<path fill="#131342" d="M309.599,445.199c-49.721,0-90.403-40.674-90.403-90.398c0-49.724,40.682-90.404,90.403-90.404h11.864
		c15.822-27.12,45.206-45.201,78.539-45.201c33.333,0,62.712,18.082,77.968,45.201h12.43c49.723,0,90.404,40.681,90.404,90.404
		c0,49.724-40.682,90.398-90.404,90.398v124.307c0,6.213-5.086,11.299-11.297,11.299H320.902c-6.217,0-11.303-5.086-11.303-11.299
		V445.199z M309.599,309.601c0-11.866,2.26-23.167,6.218-33.9h-6.218c-43.506,0-79.103,35.597-79.103,79.101
		c0,43.502,35.597,79.099,79.103,79.099c6.218,0,11.303,5.092,11.303,11.299v67.807h33.899v-45.201c0-3.391,2.26-5.65,5.651-5.65
		c3.387,0,5.652,2.26,5.652,5.65v45.201h28.247v-56.504c0-3.387,2.265-5.65,5.651-5.65c3.392,0,5.652,2.264,5.652,5.65v56.504H433.9
		v-45.201c0-3.391,2.26-5.65,5.652-5.65c3.387,0,5.652,2.26,5.652,5.65v45.201h33.898v-67.807c0-6.207,5.086-11.299,11.297-11.299
		c43.508,0,79.102-35.591,79.102-79.099c0-43.509-35.594-79.101-79.102-79.101h-6.779c4.52,10.734,6.779,22.034,6.779,33.9v22.601
		c0,3.39-2.26,5.652-5.646,5.652s-5.65-2.263-5.65-5.652v-22.601c0-43.503-35.598-79.101-79.101-79.101
		s-79.101,35.598-79.101,79.101v22.601c0,3.39-2.265,5.652-5.651,5.652c-3.392,0-5.651-2.263-5.651-5.652V309.601z M320.902,569.506
		h158.202v-45.205H320.902V569.506z"/>
</g>
</svg>
