<?xml version="1.0" encoding="utf-8"?>
<!-- Generator: Adobe Illustrator 15.0.0, SVG Export Plug-In . SVG Version: 6.00 Build 0)  -->
<!DOCTYPE svg PUBLIC "-//W3C//DTD SVG 1.1//EN" "http://www.w3.org/Graphics/SVG/1.1/DTD/svg11.dtd">
<svg version="1.1" id="Layer_1" xmlns="http://www.w3.org/2000/svg" xmlns:xlink="http://www.w3.org/1999/xlink" x="0px" y="0px"
	 width="400px" height="400px" viewBox="0 0 400 400" enable-background="new 0 0 400 400" xml:space="preserve">
<g>
	<g>
		<path fill="#131342" d="M119.547,92.095c11.957,1.252,23.389-14.217,25.059-30.244c1.668-16.045-7.035-26.588-18.99-27.847
			c-11.975-1.252-23.389,14.222-25.082,30.243C98.876,80.292,107.572,90.843,119.547,92.095z"/>
		<path fill="#131342" d="M132.184,297.599c4.338,12.445,9.071,37.42,11.265,55.539c2.217,18.274,24.211,16.034,22.888-2.359
			c-0.954-13.138-2.682-51.355-13.62-83.208c-11.413-33.224-26.304-58.316-26.304-58.316c4.352-20.801,13.113-61.708,13.113-61.708
			s15.223,34.088,49.912,53.329c19.575,10.358,28.808-5.305,17.633-15.021c-49.354-29.588-45.062-76.204-70.567-79.685
			C117.4,103.564,93.762,93.812,84.04,94.384c-49.293,2.903-65.356,63.307-66.112,92.923c-0.484,18.49,18.43,20.374,21.6,1.669
			c4.095-24.169,12.184-52.917,31.298-60.063c-4.53,24.885-18.228,67.932-18.228,67.932c-5.649,36.061,18.621,40.996,16.737,77.127
			c-0.787,15.176-12.815,43.153-21.672,56.304c-10.372,15.389,7.653,27.43,19.681,12.945c10.688-12.863,21.811-30.459,29.367-51.678
			c9.102-25.559,2.819-53.811,2.819-53.811C115.273,255.387,124.25,274.913,132.184,297.599z"/>
	</g>
	<g>
		<path fill="#131342" d="M291.757,94.049c-12.159,0.132-22.186-16.522-22.34-32.806c-0.161-16.296,9.596-26.09,21.749-26.215
			c12.165-0.131,22.185,16.522,22.358,32.812C313.667,84.144,303.928,93.931,291.757,94.049z"/>
		<path fill="#131342" d="M259.534,299.625c-5.556,12.1-12.69,36.788-16.611,54.801c-3.964,18.18-25.887,13.84-22.799-4.529
			c2.205-13.138,7.576-51.428,21.601-82.434c14.634-32.342,31.996-56.183,31.996-56.183c-2.402-21.338-14.438-78.721-14.438-78.721
			s-42.628-9.78-62.729-65.101c-7.646-21.04,9.3-28.104,17.478-15.562c10.24,15.684,16.72,37.373,40.376,48.209
			c18.459,8.464,65.541,3.91,75.263,5.412c49.317,7.604,54.073,68.33,52.034,98.204c-1.271,18.656-20.486,18.739-21.898-0.369
			c-1.822-24.712-3.678-54.669-22.244-63.67c2.199,25.464,11.6,66.125,11.6,66.125c2.265,36.812-22.619,39.481-24.157,76.009
			c-0.655,15.354,8.791,44.631,16.463,58.71c8.97,16.463-10.3,24.224-21.027,11.158c-10.725-13.065-19.051-32.724-24.642-54.788
			c-6.734-26.572,2.271-54.407,2.271-54.407C280.551,258.748,269.668,277.548,259.534,299.625z"/>
	</g>
</g>
</svg>
