<?xml version="1.0" encoding="utf-8"?>
<!-- Generator: Adobe Illustrator 15.0.0, SVG Export Plug-In . SVG Version: 6.00 Build 0)  -->
<!DOCTYPE svg PUBLIC "-//W3C//DTD SVG 1.1//EN" "http://www.w3.org/Graphics/SVG/1.1/DTD/svg11.dtd">
<svg version="1.1" id="Layer_1" xmlns="http://www.w3.org/2000/svg" xmlns:xlink="http://www.w3.org/1999/xlink" x="0px" y="0px"
	 width="400px" height="400px" viewBox="200 200 400 400" enable-background="new 200 200 400 400" xml:space="preserve">
<g>
	<path fill="#131342" d="M328.77,372.903c21.812,0,39.546,17.734,39.546,39.546c0,21.802-17.734,39.541-39.546,39.541
		c-21.808,0-39.546-17.739-39.546-39.541C289.223,390.637,306.962,372.903,328.77,372.903z"/>
	<path fill="#131342" d="M218.253,435.584c0,24.387,18.342,44.495,41.989,47.306c19.562,56.134,72.96,96.427,135.767,96.427
		c62.781,0,116.184-40.293,135.753-96.427c23.645-2.811,41.99-22.925,41.99-47.306c0-8.116-2.033-15.74-5.611-22.434
		c-3.642-1.052-15.589-5.4-39.274-21.807c-58.273-40.338-168.867-65.975-245.905-44.494c-9.704,12.342-17.444,26.296-22.719,41.413
		C236.598,391.067,218.253,411.187,218.253,435.584z M319.942,477.76c14.357,0.226,10.831,15.506,10.831,15.506
		s0.12-10.271-11.292-10.271c-9.919,0-14.698,17.103-3.076,24.633c11.632,7.519,30.088-2.741,50.948-17.454
		c13.13-9.243,25.73-8.741,31.631-2.911c5.891-5.83,18.486-6.332,31.611,2.911c20.86,14.713,39.326,24.973,50.948,17.454
		c11.633-7.53,6.843-24.633-3.086-24.633c-11.393,0-11.286,10.271-11.286,10.271s-3.512-15.28,10.836-15.506
		c14.707-0.23,25.563,24.984,7.765,38.063c-18.746,13.763-73.818,4.624-86.798-10.159c-12.98,14.783-68.072,23.922-86.788,10.159
		C294.377,502.744,305.244,477.535,319.942,477.76z M284.192,412.449c0-24.588,20-44.577,44.577-44.577
		c23.715,0,43.143,18.602,44.495,41.992c5.295-7.1,13.727-11.472,22.744-11.472c9.012,0,17.434,4.373,22.724,11.472
		c1.354-23.386,20.791-41.992,44.496-41.992c24.577,0,44.571,19.994,44.571,44.577c0,24.577-19.994,44.571-44.571,44.571
		c-22.633,0-41.38-16.973-44.19-38.855c-0.831-0.096-1.593-0.597-1.979-1.398c-3.848-8.115-12.113-13.345-21.051-13.345
		c-8.957,0-17.233,5.229-21.081,13.345c-0.38,0.802-1.142,1.283-1.963,1.383c-2.815,21.888-21.552,38.871-44.201,38.871
		C304.192,457.021,284.192,437.021,284.192,412.449z"/>
	<path fill="#131342" d="M463.229,372.903c21.802,0,39.547,17.734,39.547,39.546c0,21.802-17.745,39.541-39.547,39.541
		c-21.812,0-39.546-17.739-39.546-39.541C423.683,390.637,441.416,372.903,463.229,372.903z"/>
	<path fill="#131342" d="M568.141,408.166c-3.642-1.057-15.589-5.416-39.274-21.817c-58.273-40.329-168.867-65.971-245.905-44.489
		c-0.952,0.265-1.909,0.531-2.851,0.812c0,0-35.005-30.436,29.271-107.788c33.996-33.492,94.502-16.72,141.824,13.205
		c1.397-2.77,3.172-5.372,5.331-7.722c6.101-6.633,14.417-10.498,23.425-10.879c2.445-0.095,4.478,1.781,4.584,4.211
		c0.1,2.432-1.788,4.478-4.213,4.581c-6.652,0.283-12.805,3.136-17.313,8.04c-1.834,1.991-3.276,4.231-4.358,6.625
		c55.577,37.359,102.222,88.719,116.104,117.925c3.476,6.268,9.928,21.143,8.776,27.871c-0.557,4.619-7.921,9.729-14.162,9.729
		C569.373,408.476,568.973,408.411,568.141,408.166z"/>
</g>
</svg>
