<?xml version="1.0" encoding="utf-8"?>
<!-- Generator: Adobe Illustrator 15.0.0, SVG Export Plug-In . SVG Version: 6.00 Build 0)  -->
<!DOCTYPE svg PUBLIC "-//W3C//DTD SVG 1.1//EN" "http://www.w3.org/Graphics/SVG/1.1/DTD/svg11.dtd">
<svg version="1.1" id="Layer_1" xmlns="http://www.w3.org/2000/svg" xmlns:xlink="http://www.w3.org/1999/xlink" x="0px" y="0px"
	 width="400px" height="400px" viewBox="200 200 400 400" enable-background="new 200 200 400 400" xml:space="preserve">
<g>
	<path fill="#131342" d="M400.001,219.809c-100.17,0-181.675,80.824-181.675,180.181c0,99.37,81.504,180.202,181.675,180.202
		c100.165,0,181.672-80.832,181.672-180.202C581.674,300.633,500.166,219.809,400.001,219.809z M455.855,245.729
		c26.221,9.768,49.219,26.048,66.949,47.053c12.461,21.802,14.953,32.872,14.197,38.379l-50.219,18.353l-53.758-34.118
		c-3.719-19.512-12.506-51.093-15.303-61.028C431.326,245.936,453.412,245.729,455.855,245.729z M405.938,254.43l-0.096,0.023
		c0.113,0.388,11.027,38.379,15.561,61.058l-48.542,39.846l-77.788-11.585c0,0-4.814-20.695-4.739-37.347l0.015,0.024
		c0.297-0.413,27.4-43.86,72.688-57.953C363.037,248.496,389.988,249.743,405.938,254.43z M328.457,252.524
		c-24.04,16.254-40.952,38.262-45.998,45.303c-6.498,2.74-13.281,8.366-18.944,13.86
		C279.238,286.425,301.712,265.882,328.457,252.524z M239.19,396.308c0-2.757,0.283-5.456,0.424-8.212
		c4.389,7.672,10.787,13.421,15.444,16.953c3.913,14.863,15.045,52.8,33.332,82.89c-0.536,11.986,0.584,20.158,1.943,25.639
		C258.946,484.209,239.19,442.577,239.19,396.308z M298.51,482.616c-18.841-30.751-30.169-71.719-33.104-83.259
		c11.764-25.058,27.005-44.001,27.005-44.001l76.149,11.094c8.646,24.942,20.747,50.892,26.578,63.012
		c-8.474,12.647-32.264,47.85-46.318,65.149C335.331,494.803,311.712,487.273,298.51,482.616z M399.987,557.104
		c-13.963,0-27.453-1.957-40.387-5.327c13.441-0.411,21.369-3.6,25.882-6.663c4.069,0.87,15.822,3.111,31.508,3.111
		c15.998,0,36.021-2.431,55.838-10.938c1.059,0.359,2.104,0.552,3.156,0.681C453.348,550.168,427.449,557.104,399.987,557.104z
		 M471.766,525.329c-40.467,19.062-84.622,8.459-85.082,8.338l-3.297-1.685c-11.996-11.004-22.163-27.863-24.121-31.272
		c-0.101-0.182-0.139-0.364-0.23-0.546c14.443-18.142,36.811-51.19,45.313-63.934c45.629-1.981,63.609-5.586,63.609-5.586
		c0.162,0.254,23.359,30.487,34.35,57.553C496.773,501.403,480.686,516.693,471.766,525.329z M545.646,459.188
		c-18.43,14.544-34.719,20.259-34.719,20.259c-7.299-14.361-32.818-55.57-32.818-55.57c8.443-20.981,11.857-49.911,13.588-63.989
		l48.041-17.567c11.912,11.544,18.203,31.44,20.287,39.267c0.451,4.864,0.762,9.779,0.762,14.722
		c0,23.757-5.303,46.203-14.594,66.515C546.164,460.4,545.646,459.188,545.646,459.188z"/>
</g>
</svg>
