<?xml version="1.0" encoding="utf-8"?>
<!-- Generator: Adobe Illustrator 15.0.0, SVG Export Plug-In . SVG Version: 6.00 Build 0)  -->
<!DOCTYPE svg PUBLIC "-//W3C//DTD SVG 1.1//EN" "http://www.w3.org/Graphics/SVG/1.1/DTD/svg11.dtd">
<svg version="1.1" id="Layer_1" xmlns="http://www.w3.org/2000/svg" xmlns:xlink="http://www.w3.org/1999/xlink" x="0px" y="0px"
	 width="400px" height="400px" viewBox="0 0 400 400" enable-background="new 0 0 400 400" xml:space="preserve">
<g>
	<path fill="#131342" d="M255.61,137.059c-4.361-4.361-11.438-4.361-15.799,0L22.167,354.701c-4.359,4.359-4.359,11.432,0,15.793
		c4.361,4.367,11.432,4.367,15.799,0l27.523-27.526l30.318-30.318l159.791-159.792C259.974,148.492,259.974,141.42,255.61,137.059z
		 M242.98,139.653c2.767-2.771,7.26-2.768,10.031,0c2.769,2.771,2.769,7.264,0,10.036l-19.263,19.254
		c-2.767,2.769-7.256,2.769-10.032,0c-2.767-2.769-2.767-7.262,0-10.027L242.98,139.653z M35.862,366.84
		c-2.768,2.764-7.26,2.764-10.03-0.004c-2.767-2.768-2.769-7.262-0.002-10.034l19.26-19.262c0.446-0.443,0.95-0.792,1.468-1.088
		c0.295,2.382,1.312,4.688,3.143,6.521c1.832,1.827,4.14,2.842,6.521,3.137c-0.305,0.523-0.652,1.021-1.097,1.463L35.862,366.84z"/>
	<polygon fill="#131342" points="255.853,91.452 288.189,114.947 248.218,114.947 280.555,91.452 268.198,129.471 	"/>
	<polyline fill="#131342" points="239.622,89.383 224.183,41.837 264.629,71.213 214.636,71.213 255.076,41.837 239.622,89.383 	"/>
	<polyline fill="#131342" points="294.864,191.461 281.284,149.639 316.853,175.485 272.878,175.485 308.45,149.639 
		294.864,191.461 	"/>
	<polyline fill="#131342" points="365.038,155.891 355.107,125.336 381.103,144.222 348.971,144.222 374.967,125.336 
		365.038,155.891 	"/>
	<polyline fill="#131342" points="289.53,48.677 282.244,26.23 301.333,40.102 277.734,40.102 296.829,26.23 289.53,48.677 	"/>
	<polyline fill="#131342" points="348.971,98.895 334.608,54.684 372.209,82.004 325.733,82.004 363.339,54.684 348.971,98.895 	"/>
	<polyline fill="#131342" points="313.128,125.336 305.836,102.891 324.931,116.761 301.333,116.761 320.425,102.891 
		313.128,125.336 	"/>
</g>
</svg>
