<?xml version="1.0" encoding="utf-8"?>
<!-- Generator: Adobe Illustrator 15.0.0, SVG Export Plug-In . SVG Version: 6.00 Build 0)  -->
<!DOCTYPE svg PUBLIC "-//W3C//DTD SVG 1.1//EN" "http://www.w3.org/Graphics/SVG/1.1/DTD/svg11.dtd">
<svg version="1.1" id="Layer_1" xmlns="http://www.w3.org/2000/svg" xmlns:xlink="http://www.w3.org/1999/xlink" x="0px" y="0px"
	 width="400px" height="400px" viewBox="200 200 400 400" enable-background="new 200 200 400 400" xml:space="preserve">
<g>
	<path fill="#131342" d="M477.039,347.689c1.257-6.903,9.592,0.801,11.928-3.844c-12.577-5.208-4.743-14.921,1.783-20.602
		c-14.173-2.486-3.894-19.94,1.025-26.145c-2.981-2.478-13.2-1.447-11.037-6.453c1.831-4.373,8.42,1.052,9.584-4.647
		c-22.992-3.91-16.173-22.342-22.662-34.319c-17.021-0.068-15.226-18.399-38.676-18.59c0.135-27.685-28.179,6.78-42.653-14.677
		c-7.088,3.674,3.369,9.934-4.162,19.778c-12.942-2.274-20.578,6.335-36.44-1.924c2.396,21.4-7.883,39.208-28.073,35.384
		c1.586,5.81,16.8,4.964,14.142,12.82c-13.189,19.96-23.918,30.982-25.133,57.629c11.859,5.665,10.154,14.612,0.587,21.421
		c8.51,1.241,11.398-8.988,22.222-2.985c-1.036,3.158,3.412,3.616,3.135,6.387c0.068,8.646-12.257,12.095-6.553,18.957
		c4.533-8.254,15.815-2.648,26.178,1.031c-2.61,7.186-2.019,12.828,2.22,16.679c9.395-23.558,35.447-6.536,39.539,8.312
		c2.55-4.208,4.375-9.918,10.384-7.033c22.966,8.51,4.198,37.383,13.77,52.439c7.973-17.626-3.888-63.462,27.555-64.745
		c5.432,7.223,6.014,16.806,10.081,24.677c0.794-14.738-5.742-41.733,13.931-48.217c14.067,2.35,13.979,11.569,23.625,16.082
		C491.723,370.771,467.507,367.458,477.039,347.689z"/>
	<path fill="#131342" d="M417.679,561.973c7.501-18.673,0.91-44.931-4.202-61.332C410.624,520.527,395.604,555.215,417.679,561.973z
		"/>
	<path fill="#131342" d="M460.902,560.334c-5.049,5.442-5.049,21.934,7.203,21.232C472.139,574.544,471.28,562.616,460.902,560.334z
		"/>
</g>
</svg>
