<?xml version="1.0" encoding="utf-8"?>
<!-- Generator: Adobe Illustrator 15.0.0, SVG Export Plug-In . SVG Version: 6.00 Build 0)  -->
<!DOCTYPE svg PUBLIC "-//W3C//DTD SVG 1.1//EN" "http://www.w3.org/Graphics/SVG/1.1/DTD/svg11.dtd">
<svg version="1.1" id="Layer_1" xmlns="http://www.w3.org/2000/svg" xmlns:xlink="http://www.w3.org/1999/xlink" x="0px" y="0px"
	 width="400px" height="400px" viewBox="200 200 400 400" enable-background="new 200 200 400 400" xml:space="preserve">
<g>
	<circle fill="#131342" cx="351.238" cy="435.379" r="23.805"/>
	<path fill="#131342" d="M303.831,399.288c0,0,14.879,69.94,45.009,69.94c30.129,0,40.549-23.436,61.76-69.94
		c2.973-8.178,14.874-11.527,22.692-6.691c7.809,4.838,9.671,13.767,7.432,18.974c-2.229,5.207-40.916,81.093-40.916,81.093
		s-4.458,13.393-5.212,35.714c-0.743,22.325-0.743,29.764-0.743,29.764s0.372,8.18-8.552,8.18c-8.928,0-67.334,0-67.334,0
		s-7.625-0.743-7.625-7.625c0-6.883-0.56-37.383-0.56-37.383s-1.486-11.902-4.093-19.721c-2.601-7.813-27.528-87.421-27.528-87.421
		s-5.576-17.113,7.071-21.949C297.88,387.386,303.831,399.288,303.831,399.288z"/>
	<path fill="#131342" d="M336.108,288.559c12.186,0,22.07,9.879,22.07,22.07c0,12.188-9.885,22.07-22.07,22.07
		c-12.186,0-22.07-9.882-22.07-22.07C314.038,298.438,323.922,288.559,336.108,288.559z"/>
	<path fill="#131342" d="M400.185,403.877c0,0,7.19-17.359,15.868-19.217c1.988-1.112,2.606-0.743,1.119-7.19
		c-1.485-6.446-15.501-59.27-15.501-59.27s-4.093-11.718-16.553-7.257c-12.461,4.467-8.924,16.554-8.924,16.554l18.778,76.381
		C394.972,403.877,396.651,410.89,400.185,403.877z"/>
	<path fill="#131342" d="M389.268,414.292l-20.83-82.332c0,0-2.481-10.741-14.72,2.976c-5.618,3.964-12.244,6.445-22.075,4.957
		c-9.835-1.486-17.451-6.168-22.075-12.01c-4.623-5.844-32.636-63.876-32.636-63.876s-6.212-10.912-18.612-5.457
		c-12.398,5.457-5.457,19.838-5.457,19.838l32.739,77.873c0,0,6.448,15.379,6.94,21.824c1.487,4.462-1.361,5.949,6.944,8.431
		c5.454,2.483,11.897,9.92,13.885,17.357c1.988,7.442,3.296,18.358,14.049,10.42c10.752-7.929,19.005-10.912,26.288-10.42
		c7.278,0.502,15.902,2.491,22.007,11.409C381.826,424.219,384.21,427.337,389.268,414.292z"/>
	<path fill="#131342" d="M380.113,307.176c0,0,14.773-9.737,22.495,0c2.413,2.688,5.039,1.677,8.735-7.386
		c3.687-9.068,15.617-33.25,15.617-33.25s6.67-12.898-3.407-17.935c-10.072-5.038-17.562,1.497-21.949,9.551
		c-4.392,8.057-23.697,43.312-23.697,43.312S374.403,308.182,380.113,307.176z"/>
	<path fill="#131342" d="M457.38,353.536c-13.142,0-23.808,10.661-23.808,23.805c0,1.952,0.236,3.844,0.685,5.661
		c7.722,2.546,13.677,8.945,15.604,16.923c2.364,0.791,4.898,1.226,7.523,1.226c13.156,0,23.812-10.661,23.812-23.81
		S470.531,353.536,457.38,353.536z"/>
	<g>
		<g>
			<path fill="#131342" d="M575.711,296.725c1.294-7.335-6.341-10.155-9.401-9.568c-0.839-9.802-10.723-5.152-10.723-5.152
				l2.365-4.433l15.27-30.125c0,0,4.917-8.887-2.472-12.888c-8.842-4.056-13.224,7.23-13.224,7.23l-21.476,41.432
				c0,0-2.124-1.855-6.732-0.063c-12.287,4.788-11.472,16.426-12.814,29.879c-1.342,13.453-6.968,26.865-6.968,26.865l38.435,20.503
				l3.041-4.526c0,0,1.901-6.108,16.052-15.775c14.169-9.669,13.72-28.341,15.593-32.605
				C584.529,303.23,579.065,297.362,575.711,296.725z"/>
		</g>
	</g>
	<g>
		<g>
			<path fill="#131342" d="M541.219,362.669l-29.792-15.521l-27.421,50.286c0,0-5.957,15.376-20.338,14.136
				c-14.382-1.24-16.371,5.699-16.371,5.699s-31.244,59.526-40.172,76.881c-8.929,17.364,8.426,18.851,8.426,18.851H484
				c10.911,0,8.929-5.453,8.929-9.421c-1.491-48.608,14.878-78.868,14.878-78.868L541.219,362.669z"/>
		</g>
	</g>
	<path fill="#131342" d="M282.62,383.236l-33.663-62.115l-3.73,2.122l33.812,61.834C279.039,385.072,281.109,383.74,282.62,383.236z
		"/>
	<path fill="#131342" d="M242.295,331.367l12.575,23.467c0,0-12.331,7.319-14.38,12.291c-2.541,6.165-9.522,9.024-14.946,8.098
		c-3.293-6.123-8.581-17.643-8.581-17.643s9.561-3.812,11.911-10.832C231.224,339.731,239.841,331.643,242.295,331.367z"/>
</g>
</svg>
