<?xml version="1.0" encoding="utf-8"?>
<!-- Generator: Adobe Illustrator 15.0.0, SVG Export Plug-In . SVG Version: 6.00 Build 0)  -->
<!DOCTYPE svg PUBLIC "-//W3C//DTD SVG 1.1//EN" "http://www.w3.org/Graphics/SVG/1.1/DTD/svg11.dtd">
<svg version="1.1" id="Layer_1" xmlns="http://www.w3.org/2000/svg" xmlns:xlink="http://www.w3.org/1999/xlink" x="0px" y="0px"
	 width="400px" height="400px" viewBox="200 200 400 400" enable-background="new 200 200 400 400" xml:space="preserve">
<g>
	<path fill="#131342" d="M398.359,449.539c4.247,1.772,8.573,2.786,12.919,2.85c15.556-0.229,30.975-12.266,43.17-30.353
		c10.301-15.455,18.109-35.74,20.242-58.393c6.719-5.488,10.328-13.401,10.328-22.232c0-8.582-3.407-16.304-9.771-21.771
		c-0.408-17.233-2.107-32.757-9.348-45.277c-4.373-7.531-10.959-13.735-19.976-17.795c-9.017-4.081-20.344-6.141-34.646-6.141
		c-14.32,0-25.646,2.064-34.657,6.141c-13.608,6.077-21.389,17.053-25.146,29.923c-3.095,10.418-3.981,22.2-4.214,34.89
		c-5.169,5.313-7.93,12.318-7.93,20.03c0,7.924,2.914,15.105,8.354,20.459c1.879,23.374,9.84,44.301,20.412,60.165
		c4.559,6.762,9.564,12.674,14.871,17.44c-9.086,0.705-18.14-3.774-22.583-12.027c-0.398-0.742-60.658-112.399-93.584-173.407
		l-12.937,6.422c32.998,61.146,93.449,173.163,93.582,173.407C357.032,451.677,379.795,458.673,398.359,449.539z M365.333,279.454
		c3.476-5.88,8.199-10.397,15.439-13.709v8.391c7.249-3.286,17.143,8.184,30.507,8.189v5.036
		c13.353-0.011,23.241-16.516,30.49-13.23c10.796,4.983,16.263,4.219,19.653,15.243c2.091,6.962,3.1,15.216,3.546,24.397
		c-4.306-1.513-9.262-2.346-14.818-2.346c-17.482,0-32.364-6.857-37.968,4.691c-5.621-11.549-20.499-4.691-37.981-4.691
		c-6.385,0-11.947,1.13-16.67,3.094C358.205,300.189,360.2,288.089,365.333,279.454z M376.482,416.453
		c-8.464-12.674-15.2-29.228-17.88-47.725c4.496,1.693,9.697,2.666,15.604,2.666c17.477,0,26.61-19.452,37.975-29.881
		c10.91,10.025,20.485,29.881,37.968,29.881c5.105,0,9.659-0.739,13.709-2.017c-2.744,18.235-9.421,34.545-17.786,47.077
		c-10.975,16.644-25.038,26.079-34.794,25.857c-0.845,0.016-1.73-0.064-2.633-0.186c8.513-8.688,12.102-21.002,9.394-32.763
		c3.965-1.455,6.539-3.779,6.539-6.396c0-4.405-7.238-7.977-16.166-7.977c-8.927,0-16.171,3.572-16.171,7.977
		c0,3.523,4.645,6.512,11.087,7.567c3.02,9.311-0.637,19.542-9.098,25.095C388.159,431.223,381.939,424.731,376.482,416.453z
		 M245.891,215.283l-12.939,6.427c0,0,4.819,8.927,12.467,23.104l12.939-6.423C250.71,224.214,245.891,215.283,245.891,215.283z
		 M555.915,355.863c-10.925-7.595-25.136-6.045-31.755,3.465l-32.593,46.891c-0.444,0.648-0.843,1.327-1.204,2.012l-4.219,5.731
		c0,0-110.532,87.163-109.269,100.978c11.039,7.568,43.181,1.269,49.088,34.127c41.041,0.372,41.03,28.516,51.29,35.645
		c12.313,1.051,50.675-141.701,50.675-141.701l36.573-57.304c0,0,0-0.053,0-0.148C569.993,376.117,566.369,363.124,555.915,355.863z
		 M556.206,383.011l-12.737,18.321l-24.913-17.313l12.732-18.326c4.161-5.987,13.12-6.963,19.998-2.182
		C558.163,368.288,560.371,377.024,556.206,383.011z"/>
</g>
</svg>
